**ABCDEFGHIJKLMNOPQRSTUVWXYZabcdefghijklmnopqrstuvwxyz**************************
**PARASOLID !"#$%&'()*+,-./:;<=>?@[\]^_`{|}~0123456789**************************
**PART1;
MC=unknown;
MC_MODEL=unknown;
MC_ID=unknown;
OS=unknown;
OS_RELEASE=unknown;
FRU=sdl_parasolid_customer_support;
APPL=parasolid_acceptance_tests;
SITE=unknown;
USER=unknown;
FORMAT=text;
GUISE=transmit;
KEY=C:/Users/py033/Desktop/L1;
FILE=C:/Users/py033/Desktop/L1.xmt_txt;
DATE=unknown;
**PART2;
SCH=SCH_2400164_20000;
USFLD_SIZE=0;
**PART3;
**END_OF_HEADER*****************************************************************
T51 : TRANSMIT FILE created by modeller version 240016423 SCH_2400164_20000_1300
6186 0 12 27 CCCCCCCCCCCCCCCCCCCCCCCA16 index_map_offset0 0 1 dA9 index_map82 0
 A17 node_id_index_map82 0 A20 schema_embedding_map82 0 Z1 254 2 3 0 0 0 0 1e3 1
e-8 0 4 0 1 0 1 1 5 6 7 8 9 10 11 0 0 0 0 81 255 1 2 220 12 1 13 0 0 0 14 70 11
 CI9 list_type0 0 1 uI10 notransmit0 0 1 lCCCDCCDI12 finger_index0 0 1 dI12 fing
er_block1012 0 CZ3 0 4 T1 0 0 5 20 1 15 15 13 255 5 3 0 1 0 16 0 0 17 0 50 255 6
 54 0 16 18 0 0 +0 .5 .05 0 0 1 0 1 0 30 255 7 81 0 10 19 0 0 +0 1 .025 1 0 0 29
 255 8 85 0 11 20 0 -.025 0 -.025 19 255 9 1 0 1 17 0 21 V16 255 10 79 22 ?23 0
 24 7 0 0 1 18 255 11 83 0 25 0 26 8 ?1 17 255 25 0 27 28 29 11 30 31 0 32 +18 2
6 64 0 33 11 34 20 ?1 17 33 0 27 29 28 26 35 36 0 37 +18 34 23 0 38 26 39 40 ?1
 29 20 66 0 26 40 8 .025 1 -.025 29 40 58 0 34 41 20 .05 0 .05 29 41 57 0 39 42
 40 -.05 0 .05 18 39 21 0 43 34 44 41 ?1 29 42 56 0 44 45 41 -.05 1 .05 18 44 19
 0 46 39 47 42 ?1 29 45 55 0 47 48 42 .05 1 .05 18 47 17 0 49 44 50 45 ?1 29 48
 41 0 51 52 45 .05 0 -.05 18 51 11 0 53 54 55 48 ?1 29 52 40 0 54 56 48 -.05 0 -
.05 18 54 13 0 57 50 51 52 ?1 29 56 39 0 50 58 52 -.05 1 -.05 18 50 15 0 59 47 5
4 56 ?1 29 58 38 0 55 60 56 .05 1 -.05 18 55 10 0 61 51 62 58 ?1 29 60 196 0 62
 63 58 .025 0 .025 18 62 139 0 64 55 65 60 ?1 29 63 197 0 65 66 60 .025 1 .025 1
8 65 129 0 23 62 67 63 ?1 29 66 198 0 67 68 63 -.025 1 .025 18 67 140 0 69 65 70
 66 ?1 29 68 199 0 70 71 66 -.025 0 .025 18 70 128 0 72 67 73 68 ?1 29 71 201 0
 73 74 68 -.025 1 -.025 18 73 143 0 29 70 75 71 ?1 29 74 203 0 75 0 71 .025 0 -.
025 18 75 141 0 28 73 0 74 ?1 17 28 0 27 33 25 75 76 77 0 35 +15 255 27 169 0 28
 78 0 17 76 0 79 80 81 11 28 77 0 0 -16 77 116 82 ?28 83 84 85 0 0 1 17 35 0 86
 64 37 75 33 36 0 81 -15 86 163 0 64 87 0 17 64 0 86 88 35 62 81 89 0 90 +17 37
 0 86 35 88 26 91 24 0 92 +16 36 102 93 ?33 31 0 94 0 0 1 17 81 0 79 76 95 75 64
 89 0 0 -15 79 96 0 95 96 97 17 95 0 79 81 80 62 72 98 0 0 -16 89 103 99 ?64 98
 83 100 0 0 1 81 1 99 248 101 89 0 0 102 103 104 16 98 100 102 ?72 105 89 106 0
 0 1 16 83 110 103 ?32 89 77 107 0 0 1 30 100 181 0 89 107 106 0 +.025 0 -.05 0
 0 1 30 107 182 0 83 85 100 0 +-.025 0 -.05 0 0 -1 30 106 180 0 98 100 108 0 +0
 0 .025 -1 0 0 30 108 42 0 105 106 109 0 +.05 .5 -.05 0 1 0 16 105 12 110 ?111 1
12 98 108 0 0 1 30 109 43 0 113 108 114 0 +0 1 -.05 -1 0 0 16 113 6 115 ?116 117
 118 109 0 0 1 30 114 44 0 118 109 119 0 +-.05 .5 -.05 0 -1 0 16 118 16 120 ?121
 113 112 114 0 0 1 30 119 45 0 112 114 122 0 +0 0 -.05 1 0 0 16 112 14 123 ?124
 118 105 119 0 0 1 30 122 50 0 117 119 125 0 +.05 1 -.05 0 0 1 16 117 18 126 ?12
7 128 113 122 0 0 1 30 125 51 0 128 122 129 0 +-.05 1 -.05 0 0 1 16 128 20 130 ?
131 132 117 125 0 0 1 30 129 52 0 132 125 133 0 +-.05 0 -.05 0 0 1 16 132 22 134
 ?135 136 128 129 0 0 1 30 133 53 0 136 129 137 0 +.05 0 -.05 0 0 1 16 136 24 13
8 ?139 140 132 133 0 0 1 30 137 59 0 140 133 141 0 +0 1 .05 1 0 0 16 140 25 142
 ?143 144 136 137 0 0 1 30 141 60 0 144 137 145 0 +-.05 .5 .05 0 1 0 16 144 28 1
46 ?46 147 140 141 0 0 1 30 145 61 0 147 141 148 0 +0 0 .05 -1 0 0 16 147 31 149
 ?43 150 144 145 0 0 1 30 148 62 0 150 145 151 0 +.05 .5 .05 0 -1 0 16 150 34 15
2 ?38 153 147 148 0 0 1 30 151 70 0 153 148 154 0 +0 1 -.025 -1 0 0 16 153 68 15
5 ?29 156 150 151 0 0 1 30 154 74 0 156 151 19 0 +-.025 1 -.05 0 0 1 16 156 72 1
57 ?69 24 153 154 0 0 1 30 19 78 0 24 154 7 0 +.025 1 -.05 0 0 -1 16 24 76 158 ?
37 10 156 19 0 0 1 81 1 158 232 101 24 0 0 22 157 159 80 255 1 101 0 160 8001 0
 0 0 0 3 5 0 0 0 FFFFTFTFFFFFFF2 81 1 22 231 101 10 0 0 161 158 162 81 1 157 233
 101 156 0 0 158 155 163 83 255 3 159 1 0 0 81 1 155 234 101 153 0 0 157 152 164
 83 3 163 1 0 0 81 1 152 235 101 150 0 0 155 149 165 83 3 164 1 0 0 81 1 149 236
 101 147 0 0 152 146 166 83 3 165 1 0 0 81 1 146 237 101 144 0 0 149 142 167 83
 3 166 1 0 0 81 1 142 238 101 140 0 0 146 138 168 83 3 167 1 0 0 81 1 138 239 10
1 136 0 0 142 134 169 83 3 168 1 0 0 81 1 134 240 101 132 0 0 138 130 170 83 3 1
69 1 0 0 81 1 130 241 101 128 0 0 134 126 171 83 3 170 1 0 0 81 1 126 242 101 11
7 0 0 130 115 172 83 3 171 1 0 0 81 1 115 243 101 113 0 0 126 120 173 83 3 172 1
 0 0 81 1 120 244 101 118 0 0 115 123 174 83 3 173 1 0 0 81 1 123 245 101 112 0
 0 120 110 175 83 3 174 1 0 0 81 1 110 246 101 105 0 0 123 102 176 83 3 175 1 0
 0 81 1 102 247 101 98 0 0 110 99 177 83 3 176 1 0 0 83 3 177 1 0 0 81 1 161 230
 101 78 178 0 179 22 180 83 3 162 1 0 0 14 255 78 168 161 ?0 181 27 5 182 -0 0 0
 181 21 91 255 178 0 183 78 0 161 0 184 81 1 179 229 101 181 184 0 185 161 186 8
3 3 180 1 0 0 14 181 166 179 ?78 87 187 5 188 -0 0 78 87 21 91 184 0 183 181 0 1
79 178 189 81 1 185 228 101 87 189 0 190 179 191 83 3 186 1 0 0 14 87 162 185 ?1
81 192 86 5 193 -0 0 181 192 21 91 189 0 183 87 0 185 184 194 81 1 190 227 101 1
92 194 0 195 185 196 83 3 191 1 0 0 14 192 160 190 ?87 197 198 5 199 -0 0 87 197
 21 91 194 0 183 192 0 190 189 0 81 1 195 226 101 197 200 0 201 190 202 83 3 196
 1 0 0 14 197 2 195 ?192 203 204 5 205 +0 0 192 203 21 91 200 0 206 197 0 195 0
 207 81 1 201 225 101 203 207 0 208 195 209 83 3 202 1 0 0 14 203 9 201 ?197 210
 211 5 212 +0 0 197 210 21 91 207 0 206 203 0 201 200 213 81 1 208 224 101 210 2
13 0 214 201 215 83 3 209 1 0 0 14 210 27 208 ?203 96 216 5 217 +0 0 203 96 21 9
1 213 0 206 210 0 208 207 218 81 1 214 223 101 96 218 0 219 208 220 83 3 215 1 0
 0 14 96 30 214 ?210 221 79 5 222 +0 0 210 221 21 91 218 0 206 96 0 214 213 223
 81 1 219 222 101 221 223 0 224 214 225 83 3 220 1 0 0 14 221 33 219 ?96 16 226
 5 18 +0 0 96 16 21 91 223 0 206 221 0 219 218 227 81 1 224 221 101 16 227 0 0 2
19 228 83 3 225 1 0 0 14 16 36 224 ?221 0 229 5 6 +0 0 221 0 21 91 227 0 206 16
 0 224 223 0 83 3 228 1 0 0 90 255 206 63 0 1 0 183 2 227 90 183 98 0 1 206 230
 2 194 81 2 230 217 231 1 183 232 0 0 233 0 80 2 231 234 235 8004 0 0 0 0 3 5 0
 0 0 FFTFFFFFFFFFFF2 3 81 1 232 218 236 1 230 13 0 0 237 83 1 233 1 80 1 236 238
 239 9000 0 0 0 0 3 5 0 0 0 FFTFFFFFFFFFFF1 81 1 13 219 240 1 232 2 0 0 241 82 2
55 1 237 2 80 1 240 236 242 9000 0 0 0 0 3 5 0 0 0 FFTFFFFFFFFFFF3 84 255 6 241
 PART_279 255 13 242 AdamsPartName79 12 239 UG2/ADAMS_ID79 16 235 SDL/TYSA_DENSI
TY15 229 35 0 49 16 0 13 21 4 0 0 0 0 0 0 9 16 17 49 0 229 243 244 47 38 150 0 1
43 -17 243 0 229 245 49 44 143 140 0 131 -17 244 0 229 49 245 34 43 147 0 139 -1
7 38 0 226 53 127 34 49 150 0 244 +17 143 0 246 61 131 47 243 140 0 127 +15 246
 7 0 116 197 0 17 61 0 246 116 143 55 127 117 0 111 -17 131 0 246 143 116 44 59
 128 0 0 +17 127 0 226 38 111 47 61 117 0 0 +15 226 32 0 127 221 0 17 111 0 226
 127 53 55 247 105 0 248 +17 53 0 226 111 38 51 139 136 0 124 -17 247 0 211 249
 248 51 111 105 0 0 -17 248 0 211 247 250 55 116 113 0 0 -15 211 8 0 248 203 0 1
7 250 0 211 248 249 50 121 118 0 116 -17 116 0 246 131 61 50 248 113 0 0 +17 249
 0 211 250 247 54 124 112 0 0 -17 121 0 216 135 59 54 250 118 0 249 +15 216 26 0
 135 210 0 17 135 0 216 46 121 39 57 132 0 0 +17 59 0 216 121 46 50 131 128 0 25
0 -17 46 0 216 59 135 44 245 144 0 243 +17 245 0 229 244 243 39 46 144 0 135 -17
 57 0 97 124 43 54 135 132 0 121 -15 97 29 0 139 96 0 17 124 0 97 139 57 51 249
 112 0 247 +17 43 0 97 57 139 39 244 147 0 245 +17 139 0 97 43 124 34 53 136 0 0
 +50 18 49 0 221 222 6 0 +.05 .5 -.05 1 0 0 0 0 -1 50 222 48 0 96 217 18 0 +0 0
 -.05 0 -1 0 0 0 1 50 217 47 0 210 205 222 0 +-.05 .5 -.05 -1 0 0 0 0 1 50 205 4
6 0 197 212 217 0 +0 1 -.05 0 1 0 0 0 -1 50 212 37 0 203 199 205 0 +0 .5 -.05 0
 0 -1 0 -1 0 50 199 174 0 192 193 212 0 +0 .5 .025 0 0 1 0 1 0 50 193 175 0 87 1
88 199 0 +.025 .5 -.025 1 0 0 0 0 -1 50 188 177 0 181 182 193 0 +-.025 .5 -.025
 -1 0 0 0 0 1 50 182 179 0 78 0 188 0 +0 .5 -.025 0 0 -1 0 -1 0 15 204 80 0 251
 197 246 17 251 0 204 252 91 67 23 10 0 0 -17 252 0 204 92 251 73 69 156 0 0 -17
 91 0 204 251 92 65 37 24 0 0 -17 23 0 198 90 253 65 251 10 0 88 +15 198 161 0 7
2 192 0 17 90 0 198 72 23 62 88 84 0 95 +17 253 0 198 23 72 67 254 255 0 251 +17
 88 0 86 37 64 65 90 84 0 91 -16 84 105 256 ?90 77 255 257 0 0 1 81 1 256 251 10
1 84 0 0 82 258 259 16 255 109 258 ?253 84 31 260 0 0 1 30 257 184 0 84 260 85 0
 +.025 .5 .025 0 -1 0 30 260 186 0 255 261 257 0 +-.025 .5 .025 0 1 0 30 85 183
 0 77 257 107 0 +0 0 -.025 1 0 0 30 261 193 0 31 94 260 0 +-.025 .5 -.025 0 -1 0
 16 31 113 262 ?25 255 36 261 0 0 1 30 94 195 0 36 0 261 0 +.025 .5 -.025 0 1 0
 81 1 262 253 101 31 0 0 258 93 263 81 1 258 252 101 255 0 0 256 262 264 81 1 93
 254 101 36 0 0 262 0 265 83 3 263 1 0 0 83 3 265 1 0 0 83 3 264 1 0 0 81 1 82 2
50 101 77 0 0 103 256 266 83 3 259 1 0 0 81 1 103 249 101 83 0 0 99 82 267 83 3
 266 1 0 0 83 3 267 1 0 0 17 72 0 198 253 90 70 95 98 0 254 +17 254 0 187 32 69
 70 253 255 0 80 -15 187 167 0 32 181 0 17 32 0 187 30 254 11 80 83 0 76 +17 69
 0 187 254 30 67 252 156 0 253 +17 80 0 79 95 76 70 32 83 0 0 -17 30 0 187 69 32
 73 25 31 0 252 -17 92 0 204 91 252 26 29 153 0 0 -17 29 0 27 25 33 73 92 153 0
 30 +79 15 160 SDL/TYSA_COLOUR83 3 104 1 0 0 19 17 5 0 1 0 9 5 S74 4 CI16 index_
map_offset0 0 1 dCCZ20 15 5 0 0 230 232 13 2 93 0 0 0 0 0 0 0 0 0 0 0 0 0 0 0 80
 1 12 240 268 9000 0 0 0 0 3 5 0 0 0 FFTFFFFFFFFFFF3 84 5 14 CSG_379 15 268 Adam
sObjectName1 0 
