**ABCDEFGHIJKLMNOPQRSTUVWXYZabcdefghijklmnopqrstuvwxyz**************************
**PARASOLID !"#$%&'()*+,-./:;<=>?@[\]^_`{|}~0123456789**************************
**PART1;
MC=unknown;
MC_MODEL=unknown;
MC_ID=unknown;
OS=unknown;
OS_RELEASE=unknown;
FRU=sdl_parasolid_customer_support;
APPL=parasolid_acceptance_tests;
SITE=unknown;
USER=unknown;
FORMAT=text;
GUISE=transmit;
KEY=up;
FILE=up.xmt_txt;
DATE=unknown;
**PART2;
SCH=SCH_2400164_20000;
USFLD_SIZE=0;
**PART3;
**END_OF_HEADER*****************************************************************
T51 : TRANSMIT FILE created by modeller version 240016423 SCH_2400164_20000_1300
6186 0 12 27 CCCCCCCCCCCCCCCCCCCCCCCA16 index_map_offset0 0 1 dA9 index_map82 0
 A17 node_id_index_map82 0 A20 schema_embedding_map82 0 Z1 244 2 3 0 0 0 0 1e3 1
e-8 0 4 0 1 0 1 1 5 6 7 8 9 10 11 0 0 0 0 81 255 1 2 194 12 1 13 0 0 0 14 70 11
 CI9 list_type0 0 1 uI10 notransmit0 0 1 lCCCDCCDI12 finger_index0 0 1 dI12 fing
er_block1012 0 CZ3 0 4 T1 0 0 5 20 1 15 15 13 255 5 3 0 1 0 16 0 0 17 0 51 255 6
 187 0 18 19 0 0 +-.4 -.025 -555111512312578e-31 0 1 0 .02 -1 0 0 30 255 7 175 0
 20 21 0 0 +-.417364862842489 -.025 .0099227787671366 0 1 0 29 255 8 116 0 22 23
 0 -.2 .025 .37 19 255 9 1 0 1 17 0 24 V16 255 10 129 25 ?26 0 27 28 0 0 1 18 25
5 11 68 0 29 0 30 31 ?1 17 255 29 0 32 33 34 11 35 27 0 36 -18 30 65 0 37 11 38
 39 ?1 29 31 70 0 11 39 40 -.2 -.025 .37 29 39 67 0 30 41 31 -.2173648628424895
 -.025 .3599227787671365 29 40 127 0 42 31 43 -.417364862842489 .025 .0099227787
671366 18 42 102 0 44 45 0 40 ?1 29 43 126 0 45 40 46 -.417364862842489 .025 -.0
0992277876713671 18 45 101 0 47 48 42 43 ?1 29 46 125 0 48 43 49 -.2173648628424
89 .025 -.3599227787671365 18 48 100 0 50 51 45 46 ?1 29 49 124 0 51 46 52 -.2 .
025 -.37 18 51 99 0 53 54 48 49 ?1 29 52 123 0 54 49 55 .2 .025 -.37 18 54 98 0
 56 57 51 52 ?1 29 55 122 0 57 52 58 .217364862842489 .025 -.3599227787671365 18
 57 97 0 59 60 54 55 ?1 29 58 121 0 60 55 61 .4173648628424895 .025 -.0099227787
6713665 18 60 96 0 62 63 57 58 ?1 29 61 120 0 63 58 64 .4173648628424895 .025 .0
0992277876713671 18 63 95 0 65 66 60 61 ?1 29 64 119 0 66 61 67 .217364862842489
 .025 .3599227787671365 18 66 94 0 68 69 63 64 ?1 29 67 118 0 69 64 23 .2 .025 .
37 18 69 93 0 70 71 66 67 ?1 29 23 117 0 71 67 8 -.2173648628424895 .025 .359922
7787671365 18 71 92 0 26 22 69 23 ?1 17 26 0 72 73 74 71 37 10 0 75 +18 22 91 0
 35 76 71 8 ?1 17 35 0 77 75 36 22 29 27 0 34 +18 76 30 0 78 79 22 80 ?1 17 78 0
 72 74 73 76 44 20 0 81 -18 79 33 0 82 83 76 84 ?1 29 80 32 0 76 0 84 -.41736486
2842489 -.025 .0099227787671366 29 84 35 0 79 80 85 -.417364862842489 -.025 -.00
992277876713671 29 85 39 0 83 84 86 -.217364862842489 -.025 -.3599227787671365 1
8 83 37 0 87 88 79 85 ?1 29 86 42 0 88 85 89 -.2 -.025 -.37 18 88 40 0 90 91 83
 86 ?1 29 89 46 0 91 86 92 .2 -.025 -.37 18 91 44 0 93 94 88 89 ?1 29 92 49 0 94
 89 95 .217364862842489 -.025 -.3599227787671365 18 94 47 0 96 97 91 92 ?1 29 95
 53 0 97 92 98 .4173648628424895 -.025 -.00992277876713665 18 97 51 0 99 100 94
 95 ?1 29 98 56 0 100 95 101 .4173648628424895 -.025 .00992277876713671 18 100 5
4 0 102 103 97 98 ?1 29 101 60 0 103 98 41 .217364862842489 -.025 .3599227787671
365 18 103 58 0 104 38 100 101 ?1 29 41 63 0 38 101 39 .2 -.025 .37 18 38 61 0 1
05 30 103 41 ?1 17 105 0 106 107 108 38 70 109 0 33 -15 255 106 154 0 108 110 0
 17 107 0 106 68 105 103 111 112 0 113 +17 108 0 106 105 68 69 114 115 0 116 -17
 70 0 32 34 33 69 105 109 0 108 +16 109 130 117 ?70 27 118 119 0 0 1 17 33 0 32
 70 29 38 120 121 0 111 +15 32 156 0 34 122 0 17 120 0 123 124 111 11 33 121 0 0
 -16 121 6 125 ?33 112 126 127 0 0 1 17 111 0 123 120 113 38 107 112 0 0 -15 123
 27 0 128 129 0 17 113 0 123 111 130 103 131 132 0 0 -16 112 59 133 ?107 132 121
 134 0 0 1 81 1 133 228 135 112 0 0 136 125 137 16 132 10 136 ?131 138 112 139 0
 0 1 31 255 134 64 0 112 140 141 0 +.2 -.025 .35 0 1 0 -1 0 0 .02 31 140 57 0 13
8 142 134 0 +.4 -.025 0 0 1 0 -1 0 0 .02 31 141 71 0 143 134 144 0 +-.2 -.025 .3
5 0 1 0 -1 0 0 .02 16 143 66 145 ?36 126 146 141 0 0 1 30 144 115 0 147 141 148
 0 +-.2116064507094245 .025 .37 1 0 819787615245676e-32 16 147 87 149 ?116 115 1
50 144 0 0 1 30 148 114 0 151 144 152 0 +.2116064507094245 .025 .37 .49613893835
6834 0 -.868243142124459 16 151 85 153 ?154 155 115 148 0 0 1 30 152 113 0 156 1
48 157 0 +.423035022137996 .025 0 -.496138938356834 0 -.868243142124459 16 156 8
3 158 ?159 160 155 152 0 0 1 30 157 112 0 161 152 162 0 +.2116064507094245 .025
 -.37 -1 0 0 16 161 81 163 ?164 165 160 157 0 0 1 30 162 111 0 166 157 167 0 +-.
2116064507094245 .025 -.37 -.496138938356834 0 .868243142124459 16 166 79 168 ?1
69 146 165 162 0 0 1 30 167 110 0 150 162 170 0 +-.423035022137996 .025 0 .49613
8938356834 0 .868243142124459 16 150 88 171 ?172 147 173 167 0 0 1 31 170 109 0
 174 167 175 0 +-.4 .025 -555111512312578e-31 0 1 0 -1 0 0 .02 16 174 90 176 ?17
7 173 0 170 0 0 1 31 175 108 0 165 170 178 0 +-.2 .025 -.35 0 1 0 -1 0 0 .02 16
 165 80 179 ?180 166 161 175 0 0 1 31 178 107 0 160 175 181 0 +.2 .025 -.35 0 1
 0 -1 0 0 .02 16 160 82 182 ?183 161 156 178 0 0 1 31 181 106 0 155 178 184 0 +.
4 .025 0 0 1 0 -1 0 0 .02 16 155 84 185 ?186 156 151 181 0 0 1 31 184 105 0 115
 181 187 0 +.2 .025 .35 0 1 0 -1 0 0 .02 16 115 86 188 ?114 151 147 184 0 0 1 31
 187 104 0 173 184 189 0 +-.2 .025 .35 0 1 0 -1 0 0 .02 16 173 89 190 ?191 150 1
74 187 0 0 1 30 189 164 0 27 187 28 0 +-.2 -.025 .37 0 1 0 16 27 128 192 ?35 10
 109 189 0 0 1 30 28 165 0 10 189 119 0 +-.2173648628424895 -.025 .3599227787671
365 0 1 0 30 119 166 0 109 28 193 0 +.2 -.025 .37 0 1 0 30 193 167 0 118 119 194
 0 +.217364862842489 -.025 .3599227787671365 0 1 0 16 118 131 195 ?68 109 196 19
3 0 0 1 30 194 168 0 196 193 197 0 +.4173648628424895 -.025 .00992277876713671 0
 1 0 16 196 132 198 ?65 118 199 194 0 0 1 30 197 169 0 199 194 200 0 +.417364862
8424895 -.025 -.00992277876713665 0 1 0 16 199 133 201 ?62 196 202 197 0 0 1 30
 200 170 0 202 197 203 0 +.217364862842489 -.025 -.3599227787671365 0 1 0 16 202
 134 204 ?59 199 205 200 0 0 1 30 203 171 0 205 200 206 0 +.2 -.025 -.37 0 1 0 1
6 205 135 207 ?56 202 208 203 0 0 1 30 206 172 0 208 203 209 0 +-.2 -.025 -.37 0
 1 0 16 208 136 210 ?53 205 211 206 0 0 1 30 209 173 0 211 206 21 0 +-.217364862
842489 -.025 -.3599227787671365 0 1 0 16 211 137 212 ?50 208 213 209 0 0 1 30 21
 174 0 213 209 7 0 +-.417364862842489 -.025 -.00992277876713671 0 1 0 16 213 138
 214 ?47 211 20 21 0 0 1 81 1 214 219 135 213 0 0 212 215 216 17 47 0 217 218 21
9 45 82 213 0 220 +16 20 139 215 ?44 213 221 7 0 0 1 81 1 215 220 135 20 0 0 214
 222 223 17 44 0 224 220 81 42 78 20 0 177 +16 221 22 222 ?219 20 225 226 0 0 1
 81 1 222 221 135 221 0 0 215 227 228 17 219 0 217 47 87 79 229 221 0 230 +16 22
5 38 227 ?231 221 232 233 0 0 1 30 226 23 0 221 234 235 0 +-.2116064507094245 -.
025 -.37 -.496138938356834 0 .868243142124459 30 234 19 0 232 236 226 0 +.211606
4507094245 -.025 -.37 -1 0 0 30 235 26 0 126 226 237 0 +-.423035022137996 -.025
 0 .496138938356834 0 .868243142124459 16 126 25 238 ?74 121 143 235 0 0 1 31 23
7 36 0 146 235 233 0 +-.4 -.025 -555111512312578e-31 0 1 0 -1 0 0 .02 16 146 31
 239 ?81 143 166 237 0 0 1 31 233 43 0 225 237 142 0 +-.2 -.025 -.35 0 1 0 -1 0
 0 .02 31 142 50 0 240 233 140 0 +.2 -.025 -.35 0 1 0 -1 0 0 .02 16 240 45 241 ?
242 232 243 142 0 0 1 81 1 241 224 135 240 0 0 244 245 246 17 242 0 247 56 96 91
 248 240 0 249 +16 232 18 244 ?250 225 240 234 0 0 1 16 243 14 245 ?251 240 138
 236 0 0 1 81 1 245 225 135 243 0 0 241 252 253 17 251 0 254 59 99 94 255 243 0
 248 +16 138 52 252 ?256 243 132 140 0 0 1 30 236 15 0 243 139 234 0 +.423035022
137996 -.025 0 -.496138938356834 0 -.868243142124459 30 139 11 0 132 127 236 0 +
.2116064507094245 -.025 .37 .496138938356834 0 -.868243142124459 30 127 7 0 121
 0 139 0 +-.2116064507094245 -.025 .37 1 0 819787615245676e-32 81 1 252 226 135
 138 0 0 245 136 257 17 256 0 258 62 102 97 130 138 0 255 +15 258 150 0 259 260
 0 17 62 0 258 259 256 60 99 199 0 261 +17 102 0 258 256 259 100 65 196 0 131 -1
7 130 0 123 113 255 100 256 138 0 0 -17 255 0 123 130 248 97 251 243 0 0 -17 248
 0 123 255 249 94 242 240 0 0 -17 249 0 123 248 262 91 250 232 0 0 -17 262 0 123
 249 229 88 231 225 0 0 -17 250 0 263 53 93 88 249 232 0 262 +15 263 144 0 264 2
65 0 17 53 0 263 264 250 51 90 208 0 266 +17 93 0 263 250 264 91 56 205 0 242 -1
7 264 0 263 93 53 54 164 161 0 183 -17 56 0 247 267 242 54 93 205 0 264 +15 247
 146 0 267 268 0 17 267 0 247 96 56 57 183 160 0 159 -17 96 0 247 242 267 94 59
 202 0 251 -17 183 0 269 164 159 54 267 160 0 0 +17 159 0 269 183 186 57 261 156
 0 0 +15 269 78 0 172 270 0 17 186 0 269 159 154 60 259 155 0 0 +17 261 0 254 99
 59 60 159 156 0 186 -15 254 148 0 261 271 0 17 99 0 254 251 261 97 62 199 0 256
 -17 59 0 254 261 251 57 96 202 0 267 +14 255 271 149 272 ?268 260 254 5 273 +0
 0 268 260 24 81 1 272 201 135 271 274 0 275 276 277 14 268 147 276 ?265 271 247
 5 278 +0 0 265 271 24 14 260 151 275 ?271 279 258 5 280 +0 0 271 279 24 50 255
 273 180 0 271 278 280 0 +.423035022137996 -.025 0 .868243142124459 0 -.49613893
8356834 .496138938356834 0 .868243142124459 13 24 188 0 0 0 0 0 0 9 16 14 16 159
 281 ?282 0 72 5 283 +0 0 282 0 24 81 1 281 195 135 16 284 0 0 285 286 14 282 16
1 285 ?122 16 77 5 19 +0 0 122 16 24 15 72 158 0 73 16 0 50 283 185 0 16 287 19
 0 +-.423035022137996 -.025 0 -.868243142124459 0 .496138938356834 -.49613893835
6834 0 -.868243142124459 50 287 184 0 122 288 283 0 +-.2116064507094245 -.025 .3
7 -819787615245676e-32 0 1 -1 0 -819787615245676e-32 51 19 186 0 282 283 6 0 +-.
2 -.025 .35 0 1 0 .02 -1 0 0 14 122 157 289 ?110 282 32 5 287 +0 0 110 282 24 51
 288 183 0 110 290 287 0 +.2 -.025 .35 0 1 0 .02 -1 0 0 14 110 155 291 ?279 122
 106 5 288 +0 0 279 122 24 50 290 182 0 279 280 288 0 +.2116064507094245 -.025 .
37 .868243142124459 0 .496138938356834 -.496138938356834 0 .868243142124459 14 2
79 153 292 ?260 110 293 5 290 +0 0 260 110 24 51 280 181 0 260 273 290 0 +.4 -.0
25 0 0 1 0 .02 -1 0 0 81 1 292 199 135 279 294 0 291 275 295 15 293 152 0 296 27
9 0 17 296 0 293 104 65 66 154 151 0 114 -17 104 0 293 131 296 103 68 118 0 107
 -17 65 0 293 296 131 63 102 196 0 259 +17 154 0 269 186 114 63 296 151 0 0 +17
 114 0 269 154 116 66 108 115 0 0 +17 116 0 269 114 191 69 34 147 0 0 +17 191 0
 269 116 172 22 75 173 0 0 +17 34 0 32 29 70 22 116 147 0 191 -17 172 0 269 191
 177 71 73 150 0 0 +17 75 0 77 37 35 71 191 173 0 172 -15 77 160 0 75 282 0 17 3
7 0 77 36 75 30 26 10 0 124 -17 36 0 77 35 37 11 124 143 0 120 +17 124 0 123 128
 120 30 36 143 0 74 -17 128 0 123 230 124 76 74 126 0 0 -17 74 0 72 26 78 30 128
 126 0 0 +17 230 0 123 229 128 79 81 146 0 0 -17 229 0 123 262 230 83 219 221 0
 0 -17 81 0 224 44 82 76 230 146 0 128 +15 224 162 0 220 18 0 17 82 0 224 81 220
 79 47 213 0 219 -17 220 0 224 82 44 45 177 174 0 169 -17 177 0 269 172 169 42 2
20 174 0 73 +17 169 0 269 177 180 45 218 166 0 0 +17 180 0 269 169 164 48 266 16
5 0 0 +17 218 0 217 87 47 48 169 166 0 180 -15 217 140 0 218 297 0 17 87 0 217 2
19 218 83 50 211 0 231 -17 50 0 298 266 231 48 87 211 0 218 +17 231 0 298 50 90
 83 262 225 0 229 +15 298 142 0 266 299 0 17 90 0 298 231 266 88 53 208 0 250 -1
7 266 0 298 90 50 51 180 165 0 164 -17 164 0 269 180 183 51 264 161 0 0 +14 299
 143 300 ?297 265 298 5 301 +0 0 297 265 24 81 1 300 204 135 299 302 0 303 304 3
05 14 297 141 304 ?18 299 217 5 306 +0 0 18 299 24 14 265 145 303 ?299 268 263 5
 307 +0 0 299 268 24 51 301 177 0 299 306 307 0 +-.2 -.025 -.35 0 1 0 .02 -1 0 0
 50 306 176 0 297 308 301 0 +-.2116064507094245 -.025 -.37 -.868243142124459 0 -
.496138938356834 .496138938356834 0 -.868243142124459 50 307 178 0 265 301 278 0
 +.2116064507094245 -.025 -.37 0 0 -1 0 1 0 51 278 179 0 268 307 273 0 +.2 -.025
 -.35 0 1 0 .02 -1 0 0 50 308 103 0 270 309 306 0 +-.2 .025 .35 0 1 0 -1 0 0 14
 270 77 310 ?0 129 269 5 308 +0 0 0 129 24 50 309 29 0 129 0 308 0 +-.2 -.025 .3
5 0 1 0 -1 0 0 14 129 28 311 ?270 18 123 5 309 -0 0 270 18 24 81 1 311 207 135 1
29 312 0 313 310 314 14 18 163 313 ?129 297 224 5 6 +0 0 129 297 24 81 1 313 206
 135 18 315 0 304 311 316 80 255 1 135 0 317 8001 0 0 0 0 3 5 0 0 0 FFFFTFTFFFFF
FF2 91 255 315 0 318 18 0 313 312 319 81 1 304 205 135 297 319 0 300 313 320 83
 255 3 316 1 .67 0 91 319 0 318 297 0 304 315 302 83 3 320 1 .67 0 90 255 318 19
0 0 1 0 321 2 284 91 302 0 318 299 0 300 319 322 91 322 0 318 265 0 303 302 323
 81 1 303 203 135 265 322 0 276 300 324 91 323 0 318 268 0 276 322 274 81 1 276
 202 135 268 323 0 272 303 325 91 274 0 318 271 0 272 323 326 91 326 0 318 260 0
 275 274 294 81 1 275 200 135 260 326 0 292 272 327 91 294 0 318 279 0 292 326 3
28 91 328 0 318 110 0 291 294 329 81 1 291 198 135 110 328 0 289 292 330 91 329
 0 318 122 0 289 328 331 81 1 289 197 135 122 329 0 285 291 332 91 331 0 318 282
 0 285 329 284 81 1 285 196 135 282 331 0 281 289 333 91 284 0 318 16 0 281 331
 0 83 3 333 1 .67 0 83 3 332 1 .67 0 83 3 330 1 .67 0 83 3 327 1 .67 0 83 3 325
 1 .67 0 83 3 324 1 .67 0 81 2 321 191 334 1 318 335 0 0 336 0 80 2 334 337 338
 8004 0 0 0 0 3 5 0 0 0 FFTFFFFFFFFFFF2 3 81 1 335 192 339 1 321 13 0 0 340 83 1
 336 1 80 1 339 341 342 9000 0 0 0 0 3 5 0 0 0 FFTFFFFFFFFFFF1 81 1 13 193 343 1
 335 2 0 0 344 82 255 1 340 3 80 1 343 339 345 9000 0 0 0 0 3 5 0 0 0 FFTFFFFFFF
FFFF3 84 255 6 344 PART_379 255 13 345 AdamsPartName79 12 342 UG2/ADAMS_ID79 16
 338 SDL/TYSA_DENSITY91 312 0 318 129 0 311 346 315 91 346 0 318 270 0 310 0 312
 81 1 310 208 135 270 346 0 311 25 347 81 1 25 209 135 10 0 0 310 192 348 83 3 3
47 1 .67 0 81 1 192 210 135 27 0 0 25 117 349 83 3 348 1 .67 0 81 1 117 211 135
 109 0 0 192 195 350 83 3 349 1 .67 0 81 1 195 212 135 118 0 0 117 198 351 83 3
 350 1 .67 0 81 1 198 213 135 196 0 0 195 201 352 83 3 351 1 .67 0 81 1 201 214
 135 199 0 0 198 204 353 83 3 352 1 .67 0 81 1 204 215 135 202 0 0 201 207 354 8
3 3 353 1 .67 0 81 1 207 216 135 205 0 0 204 210 355 83 3 354 1 .67 0 81 1 210 2
17 135 208 0 0 207 212 356 83 3 355 1 .67 0 81 1 212 218 135 211 0 0 210 214 357
 83 3 356 1 .67 0 83 3 357 1 .67 0 79 15 317 SDL/TYSA_COLOUR83 3 314 1 .67 0 83
 3 305 1 .67 0 17 73 0 72 78 26 42 172 150 0 0 -17 131 0 293 65 104 100 113 132
 0 130 +17 259 0 258 102 62 63 186 155 0 154 -17 68 0 106 108 107 66 104 118 0 2
96 +83 3 295 1 .67 0 83 3 286 1 .67 0 83 3 277 1 .67 0 81 1 136 227 135 132 0 0
 252 133 358 83 3 257 1 .67 0 83 3 358 1 .67 0 83 3 253 1 .67 0 81 1 244 223 135
 232 0 0 227 241 359 81 1 227 222 135 225 0 0 222 244 360 83 3 359 1 .67 0 83 3
 360 1 .67 0 83 3 246 1 .67 0 81 1 239 232 135 146 0 0 145 168 361 81 1 145 231
 135 143 0 0 238 239 362 81 1 168 233 135 166 0 0 239 179 363 83 3 361 1 .67 0 8
1 1 179 234 135 165 0 0 168 163 364 83 3 363 1 .67 0 81 1 163 235 135 161 0 0 17
9 182 365 83 3 364 1 .67 0 81 1 182 236 135 160 0 0 163 158 366 83 3 365 1 .67 0
 81 1 158 237 135 156 0 0 182 185 367 83 3 366 1 .67 0 81 1 185 238 135 155 0 0
 158 153 368 83 3 367 1 .67 0 81 1 153 239 135 151 0 0 185 188 369 83 3 368 1 .6
7 0 81 1 188 240 135 115 0 0 153 149 370 83 3 369 1 .67 0 81 1 149 241 135 147 0
 0 188 171 371 83 3 370 1 .67 0 81 1 171 242 135 150 0 0 149 190 372 83 3 371 1
 .67 0 81 1 190 243 135 173 0 0 171 176 373 83 3 372 1 .67 0 81 1 176 244 135 17
4 0 0 190 0 374 83 3 373 1 .67 0 83 3 374 1 .67 0 81 1 238 230 135 126 0 0 125 1
45 375 83 3 362 1 .67 0 81 1 125 229 135 121 0 0 133 238 376 83 3 375 1 .67 0 83
 3 376 1 .67 0 83 3 228 1 .67 0 83 3 223 1 .67 0 83 3 216 1 .67 0 83 3 137 1 .67
 0 19 17 189 0 1 0 9 5 S74 4 CI16 index_map_offset0 0 1 dCCZ20 15 5 0 0 321 335
 13 2 176 0 0 0 0 0 0 0 0 0 0 0 0 0 0 0 80 1 12 343 377 9000 0 0 0 0 3 5 0 0 0 F
FTFFFFFFFFFFF3 84 7 14 PLATE_179 15 377 AdamsObjectName1 0 
