**ABCDEFGHIJKLMNOPQRSTUVWXYZabcdefghijklmnopqrstuvwxyz**************************
**PARASOLID !"#$%&'()*+,-./:;<=>?@[\]^_`{|}~0123456789**************************
**PART1;
MC=unknown;
MC_MODEL=unknown;
MC_ID=unknown;
OS=unknown;
OS_RELEASE=unknown;
FRU=sdl_parasolid_customer_support;
APPL=parasolid_acceptance_tests;
SITE=unknown;
USER=unknown;
FORMAT=text;
GUISE=transmit;
KEY=C:/Users/py033/Desktop/p1b;
FILE=C:/Users/py033/Desktop/p1b.xmt_txt;
DATE=unknown;
**PART2;
SCH=SCH_2400164_20000;
USFLD_SIZE=0;
**PART3;
**END_OF_HEADER*****************************************************************
T51 : TRANSMIT FILE created by modeller version 240016423 SCH_2400164_20000_1300
6186 0 12 27 CCCCCCCCCCCCCCCCCCCCCCCA16 index_map_offset0 0 1 dA9 index_map82 0
 A17 node_id_index_map82 0 A20 schema_embedding_map82 0 Z1 204 2 3 0 0 0 0 1e3 1
e-8 0 4 0 1 0 1 1 5 6 7 8 9 10 11 0 0 0 0 81 255 1 2 170 12 1 13 0 0 0 14 70 11
 CI9 list_type0 0 1 uI10 notransmit0 0 1 lCCCDCCDI12 finger_index0 0 1 dI12 fing
er_block1012 0 CZ3 0 4 T1 0 0 5 20 1 15 15 13 255 5 3 0 1 0 16 0 0 17 0 50 255 6
 54 0 16 18 0 0 +0 0 .55 0 0 1 1 0 0 30 255 7 62 0 10 19 0 0 +0 -.05 .55 -1 0 0
 29 255 8 85 0 11 20 0 .025 -.025 .55 19 255 9 1 0 1 17 0 21 V16 255 10 34 22 ?2
3 0 24 7 0 0 1 18 255 11 83 0 25 0 26 8 ?1 17 255 25 0 27 28 29 11 30 31 0 32 +1
8 26 64 0 33 11 34 20 ?1 17 33 0 35 36 37 26 38 39 0 40 -18 34 23 0 23 26 41 42
 ?1 29 20 66 0 26 42 8 .025 .025 0 29 42 58 0 34 43 20 -.05 -.05 .55 29 43 57 0
 41 44 42 -.05 .05 .55 18 41 21 0 45 34 46 43 ?1 29 44 56 0 46 47 43 .05 .05 .55
 18 46 19 0 48 41 49 44 ?1 29 47 55 0 49 50 44 .05 -.05 .55 18 49 17 0 51 46 52
 47 ?1 29 50 41 0 53 54 47 -.05 -.05 0 18 53 11 0 55 56 57 50 ?1 29 54 40 0 56 5
8 50 -.05 .05 0 18 56 13 0 59 52 53 54 ?1 29 58 39 0 52 60 54 .05 .05 0 18 52 15
 0 61 49 56 58 ?1 29 60 38 0 57 62 58 .05 -.05 0 18 57 10 0 63 53 64 60 ?1 29 62
 156 0 64 65 60 -.025 -.025 .55 18 64 117 0 66 57 67 62 ?1 29 65 157 0 67 68 62
 -.025 .025 .55 18 67 119 0 69 64 70 65 ?1 29 68 158 0 70 71 65 .025 .025 .55 18
 70 121 0 28 67 72 68 ?1 29 71 160 0 73 74 68 -.025 -.025 0 18 73 118 0 75 72 76
 71 ?1 29 74 161 0 72 77 71 -.025 .025 0 18 72 120 0 37 70 73 74 ?1 29 77 163 0
 76 0 74 .025 -.025 0 18 76 123 0 30 73 0 77 ?1 17 30 0 78 79 32 76 25 31 0 29 -
15 255 78 127 0 30 80 0 17 79 0 78 81 30 73 82 83 0 84 -17 32 0 78 30 81 11 85 8
6 0 87 -16 31 104 88 ?25 89 90 91 0 0 1 17 29 0 27 25 40 76 92 90 0 82 -15 27 13
5 0 29 93 0 17 40 0 27 29 28 26 36 89 0 92 -17 92 0 94 38 82 26 29 90 0 0 +16 90
 113 95 ?92 31 39 96 0 0 1 17 82 0 94 92 84 76 79 83 0 0 +15 94 80 0 82 97 98 17
 84 0 94 82 38 73 99 100 0 0 +16 83 106 101 ?82 100 0 102 0 0 1 81 1 101 204 103
 83 0 0 104 0 105 16 100 109 104 ?84 39 83 106 0 0 1 30 102 155 0 83 0 96 0 +0 -
.025 0 1 0 0 30 96 154 0 90 102 107 0 +.025 0 0 0 1 0 30 107 153 0 39 96 106 0 +
0 .025 0 -1 0 0 16 39 112 108 ?38 90 100 107 0 0 1 30 106 152 0 100 107 91 0 +-.
025 0 0 0 -1 0 30 91 151 0 31 106 109 0 +.025 -.025 0 0 0 1 30 109 150 0 89 91 1
10 0 +.025 .025 0 0 0 1 16 89 114 111 ?36 112 31 109 0 0 1 30 110 149 0 112 109
 113 0 +-.025 .025 0 0 0 1 16 112 110 114 ?115 116 89 110 0 0 1 30 113 148 0 116
 110 117 0 +-.025 -.025 0 0 0 1 16 116 107 118 ?81 119 112 113 0 0 1 30 117 147
 0 119 113 120 0 +.025 0 .55 0 -1 0 16 119 115 121 ?87 122 116 117 0 0 1 30 120
 146 0 122 117 123 0 +0 .025 .55 1 0 0 16 122 111 124 ?125 126 119 120 0 0 1 30
 123 145 0 126 120 127 0 +-.025 0 .55 0 1 0 16 126 108 128 ?129 86 122 123 0 0 1
 30 127 144 0 86 123 130 0 +0 -.025 .55 -1 0 0 16 86 105 131 ?85 132 126 127 0 0
 1 30 130 42 0 132 127 133 0 +0 -.05 0 1 0 0 16 132 12 134 ?135 136 86 130 0 0 1
 30 133 43 0 137 130 138 0 +.05 0 0 0 1 0 16 137 6 139 ?140 141 142 133 0 0 1 30
 138 44 0 142 133 143 0 +0 .05 0 -1 0 0 16 142 16 144 ?145 137 136 138 0 0 1 30
 143 45 0 136 138 146 0 +-.05 0 0 0 -1 0 16 136 14 147 ?148 142 132 143 0 0 1 30
 146 50 0 141 143 149 0 +.05 -.05 0 0 0 1 16 141 18 150 ?151 152 137 146 0 0 1 3
0 149 51 0 152 146 153 0 +.05 .05 0 0 0 1 16 152 20 154 ?155 156 141 149 0 0 1 3
0 153 52 0 156 149 157 0 +-.05 .05 0 0 0 1 16 156 22 158 ?159 160 152 153 0 0 1
 30 157 53 0 160 153 161 0 +-.05 -.05 0 0 0 1 16 160 24 162 ?163 164 156 157 0 0
 1 30 161 59 0 164 157 165 0 +.05 0 .55 0 -1 0 16 164 25 166 ?167 168 160 161 0
 0 1 30 165 60 0 168 161 19 0 +0 .05 .55 1 0 0 16 168 28 169 ?48 24 164 165 0 0
 1 30 19 61 0 24 165 7 0 +-.05 0 .55 0 1 0 16 24 31 170 ?45 10 168 19 0 0 1 81 1
 170 182 103 24 0 0 22 169 171 17 45 0 172 59 163 41 173 24 0 174 +15 172 29 0 1
63 175 0 17 59 0 172 148 45 56 159 156 0 145 -17 163 0 172 45 148 34 55 160 0 0
 +17 173 0 176 51 174 34 45 24 0 163 -17 174 0 176 173 177 41 48 168 0 159 -15 1
76 35 0 51 16 0 17 177 0 176 174 51 46 167 164 0 155 -17 48 0 178 61 159 46 174
 168 0 177 +17 159 0 178 48 145 41 59 156 0 0 +15 178 26 0 159 179 0 17 145 0 17
8 159 61 56 180 142 0 181 +17 61 0 178 145 48 52 155 152 0 180 -17 180 0 98 182
 181 52 145 142 0 140 -17 181 0 98 180 183 56 148 136 0 0 -15 98 8 0 182 97 0 17
 183 0 98 181 182 53 135 132 0 0 -17 148 0 172 163 59 53 181 136 0 183 +17 182 0
 98 183 180 57 140 137 0 0 -17 135 0 184 151 55 57 183 132 0 182 +15 184 32 0 15
1 185 0 17 151 0 184 23 135 49 63 141 0 0 +17 55 0 184 135 23 53 163 160 0 148 -
17 23 0 184 55 151 34 51 10 0 173 +17 51 0 176 177 173 49 23 10 0 167 -17 167 0
 186 63 155 49 177 164 0 151 +15 186 7 0 140 187 0 17 63 0 186 140 167 57 151 14
1 0 135 -17 155 0 186 167 140 46 61 152 0 0 +17 140 0 186 155 63 52 182 137 0 0
 +14 255 187 2 188 ?80 97 186 5 189 +0 0 80 97 21 81 1 188 176 103 187 190 0 191
 192 193 14 80 126 192 ?194 187 78 5 195 -0 0 194 187 21 14 97 9 191 ?187 179 94
 5 196 +0 0 187 179 21 50 189 46 0 187 196 197 0 +.05 0 0 1 0 0 0 0 -1 13 21 4 0
 0 0 0 0 0 9 16 14 16 36 198 ?185 0 199 5 6 +0 0 185 0 21 81 1 198 171 103 16 20
0 0 0 201 202 14 185 33 201 ?175 16 184 5 18 +0 0 175 16 21 15 199 99 0 85 16 17
6 17 85 0 199 129 87 64 32 86 0 0 +17 129 0 199 125 85 67 66 126 0 0 +17 87 0 19
9 85 125 11 28 119 0 0 +17 125 0 199 87 129 70 69 122 0 0 +17 28 0 27 40 25 70 8
7 119 0 36 -17 36 0 35 69 33 70 40 89 0 125 +15 35 131 0 37 203 0 17 69 0 35 37
 36 67 125 122 0 115 -17 37 0 35 33 69 72 115 112 0 99 -17 115 0 204 66 99 67 37
 112 0 129 +15 204 129 0 75 194 0 17 66 0 204 75 115 64 129 126 0 81 -17 99 0 20
4 115 75 72 84 100 0 38 -17 75 0 204 99 66 73 81 116 0 79 -17 38 0 94 84 92 72 3
3 39 0 0 +17 81 0 78 32 79 64 75 116 0 85 +14 194 128 205 ?203 80 204 5 206 -0 0
 203 80 21 81 1 205 178 103 194 207 0 192 208 209 14 203 130 208 ?93 194 35 5 21
0 -0 0 93 194 21 50 206 140 0 194 210 195 0 +-.025 0 0 -1 0 0 0 0 1 50 210 141 0
 203 211 206 0 +0 .025 0 0 1 0 0 0 1 50 195 139 0 80 206 196 0 +0 -.025 0 0 -1 0
 0 0 -1 50 196 37 0 97 195 189 0 +0 0 0 0 0 -1 -1 0 0 50 211 142 0 93 0 210 0 +.
025 0 0 1 0 0 0 0 -1 14 93 134 212 ?0 203 27 5 211 -0 0 0 203 21 81 1 212 180 10
3 93 213 0 208 22 214 80 255 1 103 0 215 8001 0 0 0 0 3 5 0 0 0 FFFFTFTFFFFFFF2
 91 255 213 0 216 93 0 212 0 217 81 1 208 179 103 203 217 0 205 212 218 81 1 22
 181 103 10 0 0 212 170 219 83 255 3 214 1 0 0 83 3 219 1 0 0 91 217 0 216 203 0
 208 213 207 83 3 218 1 0 0 90 255 216 102 0 1 220 221 2 222 91 207 0 216 194 0
 205 217 222 91 222 0 216 80 0 192 207 0 81 1 192 177 103 80 222 0 188 205 223 8
3 3 223 1 0 0 90 220 63 0 1 0 216 2 200 81 2 221 167 224 1 216 225 0 0 226 0 80
 2 224 227 228 8004 0 0 0 0 3 5 0 0 0 FFTFFFFFFFFFFF2 3 81 1 225 168 229 1 221 1
3 0 0 230 83 1 226 1 80 1 229 231 232 9000 0 0 0 0 3 5 0 0 0 FFTFFFFFFFFFFF1 81
 1 13 169 233 1 225 2 0 0 234 82 255 1 230 2 80 1 233 229 235 9000 0 0 0 0 3 5 0
 0 0 FFTFFFFFFFFFFF3 84 255 6 234 PART_279 255 13 235 AdamsPartName79 12 232 UG2
/ADAMS_ID79 16 228 SDL/TYSA_DENSITY91 200 0 220 16 0 198 236 0 91 236 0 220 185
 0 201 237 200 81 1 201 172 103 185 236 0 198 238 239 91 237 0 220 175 0 238 240
 236 14 175 30 238 ?179 185 172 5 241 +0 0 179 185 21 81 1 238 173 103 175 237 0
 201 242 243 91 240 0 220 179 0 242 244 237 14 179 27 242 ?97 175 178 5 197 +0 0
 97 175 21 81 1 242 174 103 179 240 0 238 191 245 91 244 0 220 97 0 191 190 240
 81 1 191 175 103 97 244 0 242 188 246 91 190 0 220 187 0 188 0 244 83 3 246 1 0
 0 83 3 245 1 0 0 50 197 47 0 179 189 241 0 +0 .05 0 0 1 0 0 0 1 50 241 48 0 175
 197 18 0 +-.05 0 0 -1 0 0 0 0 1 50 18 49 0 185 241 6 0 +0 -.05 0 0 -1 0 0 0 -1
 83 3 243 1 0 0 83 3 239 1 0 0 79 15 215 SDL/TYSA_COLOUR83 3 209 1 0 0 83 3 202
 1 0 0 83 3 193 1 0 0 81 1 169 183 103 168 0 0 170 166 247 83 3 171 1 0 0 81 1 1
66 184 103 164 0 0 169 162 248 83 3 247 1 0 0 81 1 162 185 103 160 0 0 166 158 2
49 83 3 248 1 0 0 81 1 158 186 103 156 0 0 162 154 250 83 3 249 1 0 0 81 1 154 1
87 103 152 0 0 158 150 251 83 3 250 1 0 0 81 1 150 188 103 141 0 0 154 139 252 8
3 3 251 1 0 0 81 1 139 189 103 137 0 0 150 144 253 83 3 252 1 0 0 81 1 144 190 1
03 142 0 0 139 147 254 83 3 253 1 0 0 81 1 147 191 103 136 0 0 144 134 255 83 3
 254 1 0 0 81 1 134 192 103 132 0 0 147 131 256 83 3 255 1 0 0 81 1 131 193 103
 86 0 0 134 128 257 83 3 256 1 0 0 81 1 128 194 103 126 0 0 131 124 258 83 3 257
 1 0 0 81 1 124 195 103 122 0 0 128 121 259 83 3 258 1 0 0 81 1 121 196 103 119
 0 0 124 118 260 83 3 259 1 0 0 81 1 118 197 103 116 0 0 121 114 261 83 3 260 1
 0 0 81 1 114 198 103 112 0 0 118 111 262 83 3 261 1 0 0 81 1 111 199 103 89 0 0
 114 88 263 83 3 262 1 0 0 81 1 88 200 103 31 0 0 111 95 264 83 3 263 1 0 0 81 1
 95 201 103 90 0 0 88 108 265 83 3 264 1 0 0 81 1 108 202 103 39 0 0 95 104 266
 83 3 265 1 0 0 81 1 104 203 103 100 0 0 108 101 267 83 3 266 1 0 0 83 3 267 1 0
 0 83 3 105 1 0 0 19 17 5 0 1 0 9 5 S74 4 CI16 index_map_offset0 0 1 dCCZ20 15 5
 0 0 221 225 13 2 101 0 0 0 0 0 0 0 0 0 0 0 0 0 0 0 80 1 12 233 268 9000 0 0 0 0
 3 5 0 0 0 FFTFFFFFFFFFFF3 84 5 14 CSG_379 15 268 AdamsObjectName1 0 
