**ABCDEFGHIJKLMNOPQRSTUVWXYZabcdefghijklmnopqrstuvwxyz**************************
**PARASOLID !"#$%&'()*+,-./:;<=>?@[\]^_`{|}~0123456789**************************
**PART1;
MC=unknown;
MC_MODEL=unknown;
MC_ID=unknown;
OS=unknown;
OS_RELEASE=unknown;
FRU=sdl_parasolid_customer_support;
APPL=parasolid_acceptance_tests;
SITE=unknown;
USER=unknown;
FORMAT=text;
GUISE=transmit;
KEY=C:/Users/py033/Desktop/p1a;
FILE=C:/Users/py033/Desktop/p1a.xmt_txt;
DATE=unknown;
**PART2;
SCH=SCH_2400164_20000;
USFLD_SIZE=0;
**PART3;
**END_OF_HEADER*****************************************************************
T51 : TRANSMIT FILE created by modeller version 240016423 SCH_2400164_20000_1300
6186 0 12 27 CCCCCCCCCCCCCCCCCCCCCCCA16 index_map_offset0 0 1 dA9 index_map82 0
 A17 node_id_index_map82 0 A20 schema_embedding_map82 0 Z1 84 2 3 0 0 0 0 1e3 1e
-8 0 4 0 1 0 1 1 5 6 7 8 9 10 11 0 0 0 0 81 255 1 2 66 12 1 13 0 0 0 14 70 11 CI
9 list_type0 0 1 uI10 notransmit0 0 1 lCCCDCCDI12 finger_index0 0 1 dI12 finger_
block1012 0 CZ3 0 4 T1 0 0 4 20 1 15 15 13 255 5 3 0 1 0 16 0 0 17 0 50 255 6 54
 0 16 18 0 0 +0 0 -.55 0 0 -1 -1 0 0 30 255 7 62 0 10 19 0 0 +0 -.025 -.55 1 0 0
 29 255 8 58 0 11 20 0 .025 -.025 -.55 19 255 9 1 0 1 17 0 21 V16 255 10 34 22 ?
23 0 24 7 0 0 1 18 255 11 23 0 23 0 25 8 ?1 17 255 23 0 26 27 28 11 29 10 0 30 +
18 25 21 0 31 11 32 20 ?1 17 31 0 33 34 35 25 30 24 0 36 +18 32 19 0 37 25 38 39
 ?1 29 20 57 0 25 39 8 .025 .025 -.55 29 39 56 0 32 40 20 -.025 .025 -.55 29 40
 55 0 38 41 39 -.025 -.025 -.55 18 38 17 0 29 32 42 40 ?1 29 41 41 0 43 44 40 .0
25 -.025 0 18 43 11 0 27 45 46 41 ?1 29 44 40 0 45 47 41 .025 .025 0 18 45 13 0
 34 42 43 44 ?1 29 47 39 0 42 48 44 -.025 .025 0 18 42 15 0 49 38 45 47 ?1 29 48
 38 0 46 0 47 -.025 -.025 0 18 46 10 0 50 43 0 48 ?1 17 50 0 51 52 53 46 28 54 0
 55 -15 255 51 7 0 52 56 0 17 52 0 51 57 50 42 58 59 0 0 +17 53 0 51 50 57 38 60
 61 0 28 +17 28 0 26 23 55 38 50 54 0 0 +16 54 18 62 ?28 63 59 64 0 0 1 17 55 0
 26 28 27 46 65 66 0 58 +15 26 32 0 28 67 0 17 27 0 26 55 23 43 35 68 0 69 -17 6
5 0 70 71 58 43 55 66 0 0 -16 66 12 72 ?55 73 0 74 0 0 1 17 58 0 70 65 75 46 52
 59 0 0 -15 70 8 0 58 76 0 17 75 0 70 58 71 42 77 78 0 52 -16 59 6 79 ?52 54 78
 80 0 0 1 81 1 79 81 81 59 0 0 62 82 83 16 78 16 82 ?77 59 73 84 0 0 1 30 80 43
 0 59 74 84 0 +-.025 0 0 0 1 0 30 74 42 0 66 0 80 0 +0 -.025 0 -1 0 0 30 84 44 0
 78 80 85 0 +0 .025 0 1 0 0 30 85 45 0 73 84 64 0 +.025 0 0 0 -1 0 16 73 14 86 ?
69 78 66 85 0 0 1 30 64 50 0 54 85 87 0 +-.025 -.025 0 0 0 -1 30 87 51 0 63 64 8
8 0 +-.025 .025 0 0 0 -1 16 63 20 89 ?57 90 54 87 0 0 1 30 88 52 0 90 87 91 0 +.
025 .025 0 0 0 -1 16 90 22 92 ?93 68 63 88 0 0 1 30 91 53 0 68 88 94 0 +.025 -.0
25 0 0 0 -1 16 68 24 95 ?35 61 90 91 0 0 1 30 94 59 0 61 91 96 0 +-.025 0 -.55 0
 -1 0 16 61 25 97 ?53 98 68 94 0 0 1 30 96 60 0 98 94 19 0 +0 .025 -.55 -1 0 0 1
6 98 28 99 ?37 24 61 96 0 0 1 30 19 61 0 24 96 7 0 +.025 0 -.55 0 1 0 16 24 31 1
00 ?31 10 98 19 0 0 1 81 1 100 74 81 24 0 0 22 99 101 80 255 1 81 0 102 8001 0 0
 0 0 3 5 0 0 0 FFFFTFTFFFFFFF2 81 1 22 73 81 10 0 0 103 100 104 81 1 99 75 81 98
 0 0 100 97 105 83 255 3 101 0 1 0 81 1 97 76 81 61 0 0 99 95 106 83 3 105 0 1 0
 81 1 95 77 81 68 0 0 97 92 107 83 3 106 0 1 0 81 1 92 78 81 90 0 0 95 89 108 83
 3 107 0 1 0 81 1 89 79 81 63 0 0 92 62 109 83 3 108 0 1 0 81 1 62 80 81 54 0 0
 89 79 110 83 3 109 0 1 0 83 3 110 0 1 0 81 1 103 72 81 56 111 0 112 22 113 83 3
 104 0 1 0 14 255 56 2 103 ?0 76 51 5 114 +0 0 0 76 21 91 255 111 0 115 56 0 103
 0 116 81 1 112 71 81 76 116 0 117 103 118 83 3 113 0 1 0 14 76 9 112 ?56 119 70
 5 120 +0 0 56 119 21 91 116 0 115 76 0 112 111 121 81 1 117 70 81 119 121 0 122
 112 123 83 3 118 0 1 0 14 119 27 117 ?76 124 125 5 126 +0 0 76 124 21 91 121 0
 115 119 0 117 116 127 81 1 122 69 81 124 127 0 128 117 129 83 3 123 0 1 0 14 12
4 30 122 ?119 67 33 5 130 +0 0 119 67 21 91 127 0 115 124 0 122 121 131 81 1 128
 68 81 67 131 0 132 122 133 83 3 129 0 1 0 14 67 33 128 ?124 16 26 5 18 +0 0 124
 16 21 91 131 0 115 67 0 128 127 134 81 1 132 67 81 16 134 0 0 128 135 83 3 133
 0 1 0 14 16 36 132 ?67 0 136 5 6 +0 0 67 0 21 91 134 0 115 16 0 132 131 0 83 3
 135 0 1 0 90 255 115 63 0 1 0 137 2 134 81 1 137 64 138 1 115 13 0 0 139 80 1 1
38 140 141 9000 0 0 0 0 3 5 0 0 0 FFTFFFFFFFFFFF1 81 1 13 65 142 1 137 2 0 0 143
 82 255 1 139 3 80 1 142 138 144 9000 0 0 0 0 3 5 0 0 0 FFTFFFFFFFFFFF3 84 255 6
 143 PART_379 255 13 144 AdamsPartName79 12 141 UG2/ADAMS_ID15 136 35 0 29 16 0
 13 21 4 0 0 0 0 0 0 9 16 17 29 0 136 60 30 38 23 10 0 53 -17 60 0 136 36 29 32
 53 61 0 57 -17 30 0 136 29 36 11 31 24 0 35 -17 36 0 136 30 60 25 37 98 0 93 -1
7 35 0 33 31 69 11 27 68 0 0 +15 33 29 0 35 124 0 17 69 0 33 35 34 43 71 73 0 65
 +17 34 0 33 69 31 45 93 90 0 77 -17 71 0 70 75 65 45 69 73 0 0 -17 93 0 125 37
 77 25 34 90 0 0 +17 77 0 125 93 49 45 75 78 0 71 +15 125 26 0 93 119 0 17 49 0
 125 77 37 42 57 63 0 75 -17 37 0 125 49 93 32 36 98 0 60 +17 57 0 51 53 52 32 4
9 63 0 0 +50 18 49 0 67 130 6 0 +0 -.025 0 0 -1 0 0 0 -1 50 130 48 0 124 126 18
 0 +.025 0 0 1 0 0 0 0 -1 50 126 47 0 119 114 130 0 +0 .025 0 0 1 0 0 0 1 50 114
 46 0 56 120 126 0 +-.025 0 0 -1 0 0 0 0 1 50 120 37 0 76 0 114 0 +0 0 0 0 0 1 1
 0 0 79 15 102 SDL/TYSA_COLOUR81 1 86 83 81 73 0 0 82 72 145 81 1 82 82 81 78 0
 0 79 86 146 81 1 72 84 81 66 0 0 86 0 147 83 3 145 0 1 0 83 3 147 0 1 0 83 3 14
6 0 1 0 83 3 83 0 1 0 19 17 5 0 1 0 9 5 S74 4 CI16 index_map_offset0 0 1 dCCZ20
 15 4 0 0 137 13 2 72 0 0 0 0 0 0 0 0 0 0 0 0 0 0 0 0 80 1 12 142 148 9000 0 0 0
 0 3 5 0 0 0 FFTFFFFFFFFFFF3 84 5 14 BOX_279 15 148 AdamsObjectName1 0 
