**ABCDEFGHIJKLMNOPQRSTUVWXYZabcdefghijklmnopqrstuvwxyz**************************
**PARASOLID !"#$%&'()*+,-./:;<=>?@[\]^_`{|}~0123456789**************************
**PART1;
MC=unknown;
MC_MODEL=unknown;
MC_ID=unknown;
OS=unknown;
OS_RELEASE=unknown;
FRU=sdl_parasolid_customer_support;
APPL=parasolid_acceptance_tests;
SITE=unknown;
USER=unknown;
FORMAT=text;
GUISE=transmit;
KEY=C:/Users/py033/Desktop/up;
FILE=C:/Users/py033/Desktop/up.xmt_txt;
DATE=unknown;
**PART2;
SCH=SCH_2400164_20000;
USFLD_SIZE=0;
**PART3;
**END_OF_HEADER*****************************************************************
T51 : TRANSMIT FILE created by modeller version 240016423 SCH_2400164_20000_1300
6186 0 12 27 CCCCCCCCCCCCCCCCCCCCCCCA16 index_map_offset0 0 1 dA9 index_map82 0
 A17 node_id_index_map82 0 A20 schema_embedding_map82 0 Z1 244 2 3 0 0 0 0 1e3 1
e-8 0 4 0 1 0 1 1 5 6 7 8 9 10 11 0 0 0 0 81 255 1 2 194 12 1 13 0 0 0 14 70 11
 CI9 list_type0 0 1 uI10 notransmit0 0 1 lCCCDCCDI12 finger_index0 0 1 dI12 fing
er_block1012 0 CZ3 0 4 T1 0 0 5 20 1 15 15 13 255 5 188 0 1 0 16 0 0 17 0 51 255
 6 187 0 18 19 0 0 --.35 .3464101615 .825 0 0 -1 .02 -1 0 0 30 255 7 175 0 20 21
 0 0 +-.3673205080747665 .3564101615015975 .825 0 0 -1 29 255 8 116 0 22 23 0 -.
492320508076052 .1199038106006296 .775 19 255 9 1 0 1 17 0 24 V16 255 10 129 25
 ?26 0 27 28 0 0 1 18 255 11 68 0 29 0 30 31 ?1 17 255 29 0 32 33 34 11 35 36 0
 37 +18 30 65 0 35 11 38 39 ?1 29 31 70 0 11 39 40 -.492320508076052 .1199038106
006296 .825 29 39 67 0 30 41 31 -.492320508074767 .1399038106015972 .825 29 40 1
27 0 42 31 43 -.3673205080747665 .3564101615015975 .775 18 42 102 0 44 45 0 40 ?
1 29 43 126 0 45 40 46 -.35 .3664101615 .775 18 45 101 0 47 48 42 43 ?1 29 46 12
5 0 48 43 49 .35 .3664101615 .775 18 48 100 0 50 51 45 46 ?1 29 49 124 0 51 46 5
2 .3673205080747665 .356410161501597 .775 18 51 99 0 53 54 48 49 ?1 29 52 123 0
 54 49 55 .492320508074767 .1399038106015972 .775 18 54 98 0 56 57 51 52 ?1 29 5
5 122 0 57 52 58 .492320508076052 .1199038106006296 .775 18 57 97 0 59 60 54 55
 ?1 29 58 121 0 60 55 61 .1423205080760522 -.48631397209937 .775 18 60 96 0 62 6
3 57 58 ?1 29 61 120 0 63 58 64 .125 -.4963139721 .775 18 63 95 0 65 66 60 61 ?1
 29 64 119 0 66 61 67 -.125 -.4963139721 .775 18 66 94 0 68 69 63 64 ?1 29 67 11
8 0 69 64 23 -.1423205080760524 -.48631397209937 .775 18 69 93 0 70 71 66 67 ?1
 29 23 117 0 71 67 8 -.492320508074767 .1399038106015972 .775 18 71 92 0 72 22 6
9 23 ?1 17 72 0 73 74 75 71 76 77 0 26 -18 22 91 0 76 78 71 8 ?1 17 76 0 79 37 2
6 22 72 77 0 80 +18 78 30 0 81 82 22 83 ?1 17 81 0 32 34 84 78 85 86 0 87 +18 82
 33 0 84 88 78 89 ?1 29 83 32 0 78 0 89 -.3673205080747665 .3564101615015975 .82
5 29 89 35 0 82 83 90 -.35 .3664101615 .825 29 90 39 0 88 89 91 .35 .3664101615
 .825 18 88 37 0 92 93 82 90 ?1 29 91 42 0 93 90 94 .3673205080747665 .356410161
501597 .825 18 93 40 0 95 96 88 91 ?1 29 94 46 0 96 91 97 .492320508074767 .1399
038106015972 .825 18 96 44 0 98 99 93 94 ?1 29 97 49 0 99 94 100 .49232050807605
2 .1199038106006296 .825 18 99 47 0 101 102 96 97 ?1 29 100 53 0 102 97 103 .142
3205080760522 -.48631397209937 .825 18 102 51 0 104 105 99 100 ?1 29 103 56 0 10
5 100 106 .125 -.4963139721 .825 18 105 54 0 107 108 102 103 ?1 29 106 60 0 108
 103 41 -.125 -.4963139721 .825 18 108 58 0 109 38 105 106 ?1 29 41 63 0 38 106
 39 -.1423205080760524 -.48631397209937 .825 18 38 61 0 33 30 108 41 ?1 17 33 0
 32 109 29 38 110 111 0 112 +15 255 32 27 0 34 113 0 17 109 0 32 107 33 108 114
 115 0 116 +17 110 0 117 80 112 11 33 111 0 0 -16 111 6 118 ?33 115 119 120 0 0
 1 17 112 0 117 110 70 38 121 122 0 114 -15 117 156 0 70 123 0 17 70 0 117 112 8
0 69 75 124 0 121 +17 121 0 125 68 114 69 112 122 0 126 +16 122 130 127 ?121 27
 128 129 0 0 1 17 114 0 125 121 116 38 109 115 0 0 -15 125 154 0 68 130 0 17 116
 0 125 114 68 108 131 128 0 132 -16 115 59 133 ?109 134 111 135 0 0 1 81 1 133 2
28 136 115 0 0 137 118 138 16 134 10 137 ?107 139 115 140 0 0 1 31 255 135 64 0
 115 141 142 0 --.125 -.4763139721 .825 0 0 -1 -1 0 0 .02 31 141 57 0 139 143 13
5 0 -.125 -.4763139721 .825 0 0 -1 -1 0 0 .02 31 142 71 0 36 135 144 0 --.475 .1
299038106 .825 0 0 -1 -1 0 0 .02 16 36 66 145 ?29 119 86 142 0 0 1 30 144 115 0
 124 142 146 0 +-.498094010767958 .1299038106014846 .775 .499999999968518 -.8660
25403802615 0 16 124 87 147 ?70 148 149 144 0 0 1 30 146 114 0 150 144 151 0 +-.
1365470053842772 -.4963139721 .775 1 0 0 16 150 85 152 ?65 153 148 146 0 0 1 30
 151 113 0 154 146 155 0 +.1365470053842772 -.4963139721 .775 .499999999968518 .
866025403802615 0 16 154 83 156 ?59 157 153 151 0 0 1 30 155 112 0 158 151 159 0
 +.498094010767958 .1299038106014846 .775 -.500000000079864 .866025403738329 0 1
6 158 81 160 ?53 161 157 155 0 0 1 30 159 111 0 162 155 163 0 +.361547005382563
 .3664101615 .775 -1 0 0 16 162 79 164 ?47 86 161 159 0 0 1 30 163 110 0 149 159
 165 0 +-.361547005382563 .3664101615 .775 -.500000000079864 -.866025403738329 0
 16 149 88 166 ?167 124 77 163 0 0 1 31 165 109 0 168 163 169 0 --.35 .346410161
5 .775 0 0 -1 -1 0 0 .02 16 168 90 170 ?44 77 0 165 0 0 1 31 169 108 0 161 165 1
71 0 -.35 .3464101615 .775 0 0 -1 -1 0 0 .02 16 161 80 172 ?50 162 158 169 0 0 1
 31 171 107 0 157 169 173 0 -.475 .1299038106 .775 0 0 -1 -1 0 0 .02 16 157 82 1
74 ?56 158 154 171 0 0 1 31 173 106 0 153 171 175 0 -.125 -.4763139721 .775 0 0
 -1 -1 0 0 .02 16 153 84 176 ?62 154 150 173 0 0 1 31 175 105 0 148 173 177 0 --
.125 -.4763139721 .775 0 0 -1 -1 0 0 .02 16 148 86 178 ?68 150 124 175 0 0 1 31
 177 104 0 77 175 179 0 --.475 .1299038106 .775 0 0 -1 -1 0 0 .02 16 77 89 180 ?
76 149 168 177 0 0 1 30 179 164 0 27 177 28 0 +-.492320508076052 .11990381060062
96 .825 0 0 -1 16 27 128 181 ?80 10 122 179 0 0 1 30 28 165 0 10 179 129 0 +-.49
2320508074767 .1399038106015972 .825 0 0 -1 30 129 166 0 122 28 182 0 +-.1423205
080760524 -.48631397209937 .825 0 0 -1 30 182 167 0 128 129 183 0 +-.125 -.49631
39721 .825 0 0 -1 16 128 131 184 ?131 122 185 182 0 0 1 30 183 168 0 185 182 186
 0 +.125 -.4963139721 .825 0 0 -1 16 185 132 187 ?188 128 189 183 0 0 1 30 186 1
69 0 189 183 190 0 +.1423205080760522 -.48631397209937 .825 0 0 -1 16 189 133 19
1 ?192 185 193 186 0 0 1 30 190 170 0 193 186 194 0 +.492320508076052 .119903810
6006296 .825 0 0 -1 16 193 134 195 ?196 189 197 190 0 0 1 30 194 171 0 197 190 1
98 0 +.492320508074767 .1399038106015972 .825 0 0 -1 16 197 135 199 ?200 193 201
 194 0 0 1 30 198 172 0 201 194 202 0 +.3673205080747665 .356410161501597 .825 0
 0 -1 16 201 136 203 ?204 197 205 198 0 0 1 30 202 173 0 205 198 21 0 +.35 .3664
101615 .825 0 0 -1 16 205 137 206 ?207 201 208 202 0 0 1 30 21 174 0 208 202 7 0
 +-.35 .3664101615 .825 0 0 -1 16 208 138 209 ?210 205 20 21 0 0 1 81 1 209 219
 136 208 0 0 206 211 212 17 210 0 213 44 85 45 214 208 0 215 +16 20 139 211 ?216
 208 217 7 0 0 1 81 1 211 220 136 20 0 0 209 218 219 17 216 0 220 167 221 42 87
 20 0 74 +16 217 22 218 ?84 20 222 223 0 0 1 81 1 218 221 136 217 0 0 211 224 22
5 17 84 0 32 81 92 82 226 217 0 214 +16 222 38 224 ?92 217 227 228 0 0 1 30 223
 23 0 217 229 230 0 +.361547005382563 .3664101615 .825 -1 0 0 30 229 19 0 227 23
1 223 0 +.498094010767958 .1299038106014846 .825 -.500000000079864 .866025403738
329 0 30 230 26 0 119 223 232 0 +-.361547005382563 .3664101615 .825 -.5000000000
79864 -.866025403738329 0 16 119 25 233 ?34 111 36 230 0 0 1 31 232 36 0 86 230
 228 0 --.35 .3464101615 .825 0 0 -1 -1 0 0 .02 16 86 31 234 ?81 36 162 232 0 0
 1 31 228 43 0 222 232 143 0 -.35 .3464101615 .825 0 0 -1 -1 0 0 .02 31 143 50 0
 235 228 141 0 -.475 .1299038106 .825 0 0 -1 -1 0 0 .02 16 235 45 236 ?98 227 23
7 143 0 0 1 81 1 236 224 136 235 0 0 238 239 240 17 98 0 32 95 101 96 241 235 0
 242 +16 227 18 238 ?95 222 235 229 0 0 1 16 237 14 239 ?101 235 139 231 0 0 1 8
1 1 239 225 136 237 0 0 236 243 244 17 101 0 32 98 104 99 245 237 0 246 +16 139
 52 243 ?104 237 134 141 0 0 1 30 231 15 0 237 140 229 0 +.1365470053842772 -.49
63139721 .825 .499999999968518 .866025403802615 0 30 140 11 0 134 120 231 0 +-.1
365470053842772 -.4963139721 .825 1 0 0 30 120 7 0 111 0 140 0 +-.49809401076795
8 .1299038106014846 .825 .499999999968518 -.866025403802615 0 81 1 243 226 136 1
39 0 0 239 137 247 17 104 0 32 101 107 102 248 139 0 249 +17 107 0 32 104 109 10
5 132 134 0 250 +17 248 0 251 188 249 105 104 139 0 0 -17 249 0 251 248 62 102 1
92 189 0 245 -15 251 150 0 62 252 0 17 62 0 251 249 188 60 253 153 0 192 +17 192
 0 254 59 245 60 249 189 0 255 +17 245 0 254 192 246 102 101 237 0 0 -15 254 148
 0 59 256 0 17 246 0 254 245 59 99 196 193 0 241 -17 59 0 254 246 192 57 255 154
 0 196 +17 196 0 257 56 241 57 246 193 0 258 +17 241 0 257 196 242 99 98 235 0 0
 -15 257 146 0 56 259 0 17 242 0 257 241 56 96 200 197 0 260 -17 56 0 257 242 19
6 54 258 157 0 200 +17 200 0 261 53 260 54 242 197 0 262 +17 260 0 261 200 263 9
6 95 227 0 0 -15 261 144 0 53 264 0 17 263 0 261 260 53 93 204 201 0 265 -17 95
 0 32 92 98 93 260 227 0 263 +17 92 0 32 84 95 88 265 222 0 266 +17 265 0 267 20
4 266 93 92 222 0 0 -17 266 0 267 265 50 88 207 205 0 226 -15 267 142 0 50 268 0
 17 50 0 267 266 204 48 269 161 0 207 +17 207 0 270 47 226 48 266 205 0 271 +17
 226 0 270 207 214 88 84 217 0 0 -15 270 140 0 47 272 0 17 214 0 270 226 47 82 2
10 208 0 85 -17 47 0 270 214 207 45 271 162 0 210 +17 85 0 213 210 87 82 81 86 0
 0 -15 213 162 0 44 18 0 17 87 0 213 85 44 78 216 20 0 221 -17 44 0 213 87 210 4
2 215 168 0 216 +17 221 0 220 216 273 78 34 119 0 0 -15 220 158 0 167 16 0 17 27
3 0 220 221 167 30 26 10 0 0 -17 34 0 32 29 81 30 221 119 0 273 +17 167 0 220 27
3 216 71 74 149 0 0 +17 26 0 79 76 35 71 273 10 0 167 +15 79 160 0 76 274 0 17 3
5 0 79 26 37 30 29 36 0 34 -17 37 0 79 35 76 11 80 27 0 110 -17 80 0 117 70 110
 22 37 27 0 75 +17 75 0 73 72 126 22 70 124 0 0 -15 73 78 0 74 275 0 17 126 0 73
 75 276 69 68 148 0 0 -17 276 0 73 126 253 66 65 150 0 0 -17 68 0 125 116 121 66
 126 148 0 131 +17 131 0 277 65 132 66 116 128 0 276 +15 277 152 0 65 278 0 17 6
5 0 277 250 131 63 276 150 0 188 +17 132 0 277 131 250 108 107 134 0 0 -17 250 0
 277 132 65 105 188 185 0 248 -17 188 0 251 62 248 63 250 185 0 253 +17 253 0 73
 276 255 63 62 153 0 0 -17 255 0 73 253 258 60 59 154 0 0 -17 258 0 73 255 262 5
7 56 157 0 0 -17 262 0 73 258 269 54 53 158 0 0 -17 269 0 73 262 271 51 50 161 0
 0 -17 53 0 261 263 200 51 262 158 0 204 +17 204 0 267 50 265 51 263 201 0 269 +
17 271 0 73 269 215 48 47 162 0 0 -17 215 0 73 271 74 45 44 168 0 0 -17 74 0 73
 215 72 42 167 149 0 0 -14 255 278 153 279 ?252 130 277 5 280 -0 0 252 130 24 81
 1 279 199 136 278 281 0 282 283 284 14 252 151 283 ?256 278 251 5 285 -0 0 256
 278 24 14 130 155 282 ?278 123 125 5 286 -0 0 278 123 24 50 255 280 182 0 278 2
85 286 0 +-.1365470053842772 -.4963139721 .825 0 1 0 0 0 1 13 24 3 0 0 0 0 0 0 9
 16 14 16 159 287 ?274 0 220 5 288 -0 0 274 0 24 81 1 287 195 136 16 289 0 0 290
 291 14 274 161 290 ?123 16 79 5 19 -0 0 123 16 24 50 288 185 0 16 292 19 0 +-.3
61547005382563 .3664101615 .825 .866025403738329 -.500000000079864 0 .5000000000
79864 .866025403738329 0 50 292 184 0 123 286 288 0 +-.498094010767958 .12990381
06014846 .825 .866025403802615 .499999999968518 0 -.499999999968518 .86602540380
2615 0 51 19 186 0 274 288 6 0 --.475 .1299038106 .825 0 0 -1 .02 -1 0 0 14 123
 157 293 ?130 274 117 5 292 -0 0 130 274 24 51 286 183 0 130 280 292 0 --.125 -.
4763139721 .825 0 0 -1 .02 -1 0 0 81 1 293 197 136 123 294 0 290 282 295 80 255
 1 136 0 296 8001 0 0 0 0 3 5 0 0 0 FFFFTFTFFFFFFF2 91 255 294 0 297 123 0 293 2
98 299 81 1 290 196 136 274 299 0 287 293 300 81 1 282 198 136 130 298 0 293 279
 301 83 255 3 295 0 1 0 91 298 0 297 130 0 282 281 294 83 3 301 0 1 0 90 255 297
 190 0 1 0 302 2 289 91 281 0 297 278 0 279 303 298 91 303 0 297 252 0 283 304 2
81 81 1 283 200 136 252 303 0 279 305 306 91 304 0 297 256 0 305 307 303 14 256
 149 305 ?259 252 254 5 308 -0 0 259 252 24 81 1 305 201 136 256 304 0 283 309 3
10 91 307 0 297 259 0 309 311 304 14 259 147 309 ?264 256 257 5 312 -0 0 264 256
 24 81 1 309 202 136 259 307 0 305 313 314 91 311 0 297 264 0 313 315 307 14 264
 145 313 ?268 259 261 5 316 -0 0 268 259 24 81 1 313 203 136 264 311 0 309 317 3
18 91 315 0 297 268 0 317 319 311 14 268 143 317 ?272 264 267 5 320 -0 0 272 264
 24 81 1 317 204 136 268 315 0 313 321 322 91 319 0 297 272 0 321 323 315 14 272
 141 321 ?18 268 270 5 324 -0 0 18 268 24 81 1 321 205 136 272 319 0 317 325 326
 91 323 0 297 18 0 325 327 319 14 18 163 325 ?113 272 213 5 6 -0 0 113 272 24 81
 1 325 206 136 18 323 0 321 328 329 91 327 0 297 113 0 328 330 323 14 113 28 328
 ?275 18 32 5 331 -0 0 275 18 24 81 1 328 207 136 113 327 0 325 332 333 91 330 0
 297 275 0 332 0 327 14 275 77 332 ?0 113 73 5 334 +0 0 0 113 24 81 1 332 208 13
6 275 330 0 328 25 335 81 1 25 209 136 10 0 0 332 181 336 83 3 335 0 1 0 81 1 18
1 210 136 27 0 0 25 127 337 83 3 336 0 1 0 81 1 127 211 136 122 0 0 181 184 338
 83 3 337 0 1 0 81 1 184 212 136 128 0 0 127 187 339 83 3 338 0 1 0 81 1 187 213
 136 185 0 0 184 191 340 83 3 339 0 1 0 81 1 191 214 136 189 0 0 187 195 341 83
 3 340 0 1 0 81 1 195 215 136 193 0 0 191 199 342 83 3 341 0 1 0 81 1 199 216 13
6 197 0 0 195 203 343 83 3 342 0 1 0 81 1 203 217 136 201 0 0 199 206 344 83 3 3
43 0 1 0 81 1 206 218 136 205 0 0 203 209 345 83 3 344 0 1 0 83 3 345 0 1 0 50 3
34 103 0 275 331 324 0 +-.475 .1299038106 .775 0 0 -1 -1 0 0 50 331 29 0 113 0 3
34 0 +-.475 .1299038106 .825 0 0 -1 -1 0 0 50 324 176 0 272 334 320 0 +.36154700
5382563 .3664101615 .825 0 -1 0 0 0 -1 51 320 177 0 268 324 316 0 -.35 .34641016
15 .825 0 0 -1 .02 -1 0 0 50 316 178 0 264 320 312 0 +.498094010767958 .12990381
06014846 .825 -.866025403738329 -.500000000079864 0 .500000000079864 -.866025403
738329 0 51 312 179 0 259 316 308 0 -.475 .1299038106 .825 0 0 -1 .02 -1 0 0 50
 308 180 0 256 312 285 0 +.1365470053842772 -.4963139721 .825 -.866025403802615
 .499999999968518 0 -.499999999968518 -.866025403802615 0 51 285 181 0 252 308 2
80 0 -.125 -.4763139721 .825 0 0 -1 .02 -1 0 0 83 3 333 0 1 0 83 3 329 0 1 0 83
 3 326 0 1 0 83 3 322 0 1 0 83 3 318 0 1 0 83 3 314 0 1 0 83 3 310 0 1 0 83 3 30
6 0 1 0 81 2 302 191 346 1 297 347 0 0 348 0 91 289 0 297 16 0 287 299 0 91 299
 0 297 274 0 290 294 289 80 2 346 349 350 8004 0 0 0 0 3 5 0 0 0 FFTFFFFFFFFFFF2
 3 81 1 347 192 351 1 302 13 0 0 352 83 1 348 1 80 1 351 353 354 9000 0 0 0 0 3
 5 0 0 0 FFTFFFFFFFFFFF1 81 1 13 193 355 1 347 2 0 0 356 82 255 1 352 22 80 1 35
5 351 357 9000 0 0 0 0 3 5 0 0 0 FFTFFFFFFFFFFF3 84 255 7 356 PART_2279 255 13 3
57 AdamsPartName79 12 354 UG2/ADAMS_ID79 16 350 SDL/TYSA_DENSITY83 3 300 0 1 0 7
9 15 296 SDL/TYSA_COLOUR83 3 291 0 1 0 83 3 284 0 1 0 81 1 137 227 136 134 0 0 2
43 133 358 83 3 247 0 1 0 83 3 358 0 1 0 83 3 244 0 1 0 81 1 238 223 136 227 0 0
 224 236 359 81 1 224 222 136 222 0 0 218 238 360 83 3 359 0 1 0 83 3 360 0 1 0
 83 3 240 0 1 0 81 1 234 232 136 86 0 0 145 164 361 81 1 145 231 136 36 0 0 233
 234 362 81 1 164 233 136 162 0 0 234 172 363 83 3 361 0 1 0 81 1 172 234 136 16
1 0 0 164 160 364 83 3 363 0 1 0 81 1 160 235 136 158 0 0 172 174 365 83 3 364 0
 1 0 81 1 174 236 136 157 0 0 160 156 366 83 3 365 0 1 0 81 1 156 237 136 154 0
 0 174 176 367 83 3 366 0 1 0 81 1 176 238 136 153 0 0 156 152 368 83 3 367 0 1
 0 81 1 152 239 136 150 0 0 176 178 369 83 3 368 0 1 0 81 1 178 240 136 148 0 0
 152 147 370 83 3 369 0 1 0 81 1 147 241 136 124 0 0 178 166 371 83 3 370 0 1 0
 81 1 166 242 136 149 0 0 147 180 372 83 3 371 0 1 0 81 1 180 243 136 77 0 0 166
 170 373 83 3 372 0 1 0 81 1 170 244 136 168 0 0 180 0 374 83 3 373 0 1 0 83 3 3
74 0 1 0 81 1 233 230 136 119 0 0 118 145 375 83 3 362 0 1 0 81 1 118 229 136 11
1 0 0 133 233 376 83 3 375 0 1 0 83 3 376 0 1 0 83 3 225 0 1 0 83 3 219 0 1 0 83
 3 212 0 1 0 83 3 138 0 1 0 19 17 189 0 1 0 9 5 S74 4 CI16 index_map_offset0 0 1
 dCCZ20 15 5 0 0 302 347 13 2 170 0 0 0 0 0 0 0 0 0 0 0 0 0 0 0 80 1 12 355 377
 9000 0 0 0 0 3 5 0 0 0 FFTFFFFFFFFFFF3 84 7 14 PLATE_279 15 377 AdamsObjectName
1 0 
