**ABCDEFGHIJKLMNOPQRSTUVWXYZabcdefghijklmnopqrstuvwxyz**************************
**PARASOLID !"#$%&'()*+,-./:;<=>?@[\]^_`{|}~0123456789**************************
**PART1;
MC=unknown;
MC_MODEL=unknown;
MC_ID=unknown;
OS=unknown;
OS_RELEASE=unknown;
FRU=sdl_parasolid_customer_support;
APPL=parasolid_acceptance_tests;
SITE=unknown;
USER=unknown;
FORMAT=text;
GUISE=transmit;
KEY=link1;
FILE=link1.xmt_txt;
DATE=unknown;
**PART2;
SCH=SCH_2600205_25001;
USFLD_SIZE=1;
**PART3;
**END_OF_HEADER*****************************************************************
T51 : TRANSMIT FILE created by modeller version 260020523 SCH_2600205_25001_1300
6189 0 12 29 CCCCCCCCCCCCCDI5 owner1040 0 CCCCCCCCCA16 index_map_offset0 0 1 dA9
 index_map82 0 A17 node_id_index_map82 0 A20 schema_embedding_map82 0 A5 child12
 0 A14 lowest_node_id0 0 1 dZ1 133 2 3 0 0 0 0 1e3 1e-8 0 4 0 1 0 1 1 5 6 7 8 9
 10 11 0 0 0 0 0 0 81 255 1 2 107 12 1 13 0 0 0 14 70 11 CI9 list_type0 0 1 uI10
 notransmit0 0 1 lCCCDCCDI12 finger_index0 0 1 dI12 finger_block1012 0 CZ3 0 4 T
1 0 0 5 20 1 15 15 13 255 5 101 0 1 0 16 0 0 17 0 51 255 6 100 0 18 19 0 0 -.7 .
05 .025 0 0 -1 .02 -1 0 0 30 255 7 94 0 20 21 0 0 +.695149287499273 .06940285000
29066 .025 0 0 -1 29 255 8 65 0 22 23 0 .495149287499273 -.01940285000290665 -.0
25 19 8 CCCCCCCA5 owner12 0 Z9 1 0 1 17 0 24 V0 16 255 10 72 25 ?26 0 27 28 0 0
 1 18 255 11 35 0 29 0 30 31 ?1 17 255 29 0 32 33 34 11 35 36 0 37 +18 30 32 0 3
5 11 38 39 ?1 29 31 37 0 11 39 40 .495149287499273 -.01940285000290665 .025 29 3
9 34 0 30 41 31 .495149287499273 .0194028500029066 .025 29 40 70 0 42 31 43 .695
149287499273 .0694028500029066 -.025 18 42 57 0 44 45 0 40 ?1 29 43 69 0 45 40 4
6 .72 .05 -.025 18 45 56 0 47 48 42 43 ?1 29 46 68 0 48 43 49 .72 -.05 -.025 18
 48 55 0 50 51 45 46 ?1 29 49 67 0 51 46 23 .695149287499273 -.0694028500029067
 -.025 18 51 54 0 52 53 48 49 ?1 29 23 66 0 53 49 8 .495149287499273 .0194028500
029066 -.025 18 53 53 0 54 22 51 23 ?1 17 54 0 55 56 57 53 58 59 0 26 -18 22 52
 0 58 60 53 8 ?1 17 58 0 61 37 26 22 54 59 0 62 +18 60 18 0 63 64 22 65 ?1 17 63
 0 32 34 66 60 67 68 0 69 +18 64 21 0 66 70 60 71 ?1 29 65 20 0 60 0 71 .6951492
87499273 .0694028500029066 .025 29 71 23 0 64 65 72 .72 .05 .025 29 72 27 0 70 7
1 41 .72 -.05 .025 18 70 25 0 73 38 64 72 ?1 29 41 30 0 38 72 39 .69514928749927
3 -.0694028500029067 .025 18 38 28 0 33 30 70 41 ?1 17 33 0 32 73 29 38 74 75 0
 76 +15 255 32 15 0 34 77 0 17 73 0 32 66 33 70 78 79 0 80 +17 74 0 81 62 76 11
 33 75 0 0 -16 75 6 82 ?33 79 83 84 0 0 1 17 76 0 81 74 52 38 85 86 0 78 -15 81
 81 0 52 87 0 17 52 0 81 76 62 51 57 88 0 85 +17 85 0 89 50 78 51 76 86 0 90 +16
 86 73 91 ?85 27 92 93 0 0 1 17 78 0 89 85 80 38 73 79 0 0 -15 89 79 0 50 94 0 1
7 80 0 89 78 50 70 95 92 0 96 -16 79 26 97 ?73 98 75 99 0 0 1 81 1 97 123 100 79
 0 0 101 82 102 16 98 10 101 ?66 20 79 103 0 0 1 31 255 99 31 0 79 104 105 0 -.7
 -.05 .025 0 0 -1 -1 0 0 .02 31 104 24 0 68 106 99 0 -.7 .05 .025 0 0 -1 -1 0 0
 .02 31 105 38 0 36 99 107 0 -.5 -867361737988404e-32 .025 0 0 -1 -1 0 0 .02 16
 36 33 108 ?29 83 68 105 0 0 1 30 107 64 0 88 105 109 0 +.417537887487647 -17347
23475976805e-33 -.025 .970142500145332 -.242535625036333 0 16 88 48 110 ?52 111
 112 107 0 0 1 30 109 63 0 113 107 114 0 +.72 -.0756155281280883 -.025 0 1 0 16
 113 46 115 ?47 68 111 109 0 0 1 30 114 62 0 112 109 116 0 +.72 .075615528128088
3 -.025 -.970142500145332 -.242535625036333 0 16 112 49 117 ?118 88 59 114 0 0 1
 31 116 61 0 119 114 120 0 -.7 .05 -.025 0 0 -1 -1 0 0 .02 16 119 51 121 ?44 59
 0 116 0 0 1 31 120 60 0 111 116 122 0 -.7 -.05 -.025 0 0 -1 -1 0 0 .02 16 111 4
7 123 ?50 113 88 120 0 0 1 31 122 59 0 59 120 124 0 -.5 -867361737988404e-32 -.0
25 0 0 -1 -1 0 0 .02 16 59 50 125 ?58 112 119 122 0 0 1 30 124 89 0 27 122 28 0
 +.495149287499273 -.01940285000290665 .025 0 0 -1 16 27 71 126 ?62 10 86 124 0
 0 1 30 28 90 0 10 124 93 0 +.495149287499273 .0194028500029066 .025 0 0 -1 30 9
3 91 0 86 28 127 0 +.695149287499273 -.0694028500029067 .025 0 0 -1 30 127 92 0
 92 93 21 0 +.72 -.05 .025 0 0 -1 16 92 74 128 ?95 86 129 127 0 0 1 30 21 93 0 1
29 127 7 0 +.72 .05 .025 0 0 -1 16 129 75 130 ?131 92 20 21 0 0 1 81 1 130 120 1
00 129 0 0 128 132 133 17 131 0 134 44 67 45 135 129 0 136 +16 20 76 132 ?137 12
9 98 7 0 0 1 81 1 132 121 100 20 0 0 130 101 138 17 137 0 139 118 140 42 69 20 0
 56 +15 139 83 0 118 16 0 17 118 0 139 141 137 53 56 112 0 0 +17 140 0 139 137 1
41 60 34 83 0 0 -17 69 0 134 67 44 60 137 20 0 140 -17 56 0 55 136 54 42 118 112
 0 0 -15 55 45 0 56 142 0 17 136 0 55 143 56 45 44 119 0 0 -17 143 0 55 90 136 4
8 47 113 0 0 -17 44 0 134 69 131 42 136 119 0 137 +15 134 87 0 44 18 0 14 255 18
 88 144 ?77 145 134 5 6 -0 0 77 145 24 81 1 144 113 100 18 146 0 147 148 149 14
 77 16 148 ?142 18 32 5 150 -0 0 142 18 24 14 145 78 147 ?18 94 151 5 152 -0 0 1
8 94 24 13 24 3 0 0 0 0 0 0 9 16 14 16 84 153 ?154 0 139 5 155 -0 0 154 0 24 81
 1 153 108 100 16 156 0 0 157 158 14 154 86 157 ?87 16 61 5 19 -0 0 87 16 24 50
 255 155 98 0 16 159 19 0 +.72 .0756155281280883 .025 .242535625036333 -.9701425
00145332 0 .970142500145332 .242535625036333 0 50 159 97 0 87 160 155 0 +.417537
887487647 -1734723475976805e-33 .025 .242535625036333 .970142500145332 0 -.97014
2500145332 .242535625036333 0 51 19 99 0 154 155 6 0 -.5 -867361737988404e-32 .0
25 0 0 -1 .02 -1 0 0 14 87 82 161 ?94 154 81 5 159 -0 0 94 154 24 51 160 96 0 94
 152 159 0 -.7 -.05 .025 0 0 -1 .02 -1 0 0 14 94 80 162 ?145 87 89 5 160 -0 0 14
5 87 24 50 152 95 0 145 163 160 0 +.72 -.0756155281280883 .025 -1 0 0 0 0 1 50 1
63 58 0 142 150 152 0 +.5 0 -.025 0 0 -1 -1 0 0 14 142 44 164 ?0 77 55 5 163 +0
 0 0 77 24 50 150 17 0 77 0 163 0 +.5 0 .025 0 0 -1 -1 0 0 81 1 164 115 100 142
 165 0 148 25 166 80 255 1 100 0 167 8001 0 0 0 0 3 5 0 0 0 FFFFTFTFFFFFFF2 91 2
55 165 0 168 142 0 164 0 169 81 1 148 114 100 77 169 0 144 164 170 81 1 25 116 1
00 10 0 0 164 126 171 83 255 3 166 1 .67 0 81 1 126 117 100 27 0 0 25 91 172 83
 3 171 1 .67 0 81 1 91 118 100 86 0 0 126 128 173 83 3 172 1 .67 0 81 1 128 119
 100 92 0 0 91 130 174 83 3 173 1 .67 0 83 3 174 1 .67 0 91 169 0 168 77 0 148 1
65 146 83 3 170 1 .67 0 90 255 168 103 0 1 0 175 2 156 91 146 0 168 18 0 144 169
 176 91 176 0 168 145 0 147 146 177 81 1 147 112 100 145 176 0 162 144 178 91 17
7 0 168 94 0 162 176 179 81 1 162 111 100 94 177 0 161 147 180 91 179 0 168 87 0
 161 177 181 81 1 161 110 100 87 179 0 157 162 182 91 181 0 168 154 0 157 179 15
6 81 1 157 109 100 154 181 0 153 161 183 91 156 0 168 16 0 153 181 0 83 3 183 1
 .67 0 83 3 182 1 .67 0 83 3 180 1 .67 0 83 3 178 1 .67 0 81 2 175 104 184 1 168
 185 0 0 186 0 80 2 184 187 188 8004 0 0 0 0 3 5 0 0 0 FFTFFFFFFFFFFF2 3 81 1 18
5 105 189 1 175 13 0 0 190 83 1 186 1 80 1 189 191 192 9000 0 0 0 0 3 5 0 0 0 FF
TFFFFFFFFFFF1 81 1 13 106 193 1 185 2 0 0 194 82 255 1 190 14 80 1 193 189 195 9
000 0 0 0 0 3 5 0 0 0 FFTFFFFFFFFFFF3 84 255 7 194 PART_1479 255 13 195 AdamsPar
tName79 12 192 UG2/ADAMS_ID79 16 188 SDL/TYSA_DENSITY79 15 167 SDL/TYSA_COLOUR15
 61 85 0 58 154 0 83 3 158 1 .67 0 15 151 77 0 47 145 0 17 47 0 151 135 95 45 14
3 113 0 131 +17 135 0 151 96 47 64 131 129 0 67 -17 95 0 151 47 96 48 80 92 0 14
3 +17 96 0 151 95 135 70 66 98 0 0 -17 66 0 32 63 73 64 96 98 0 135 +17 67 0 134
 131 69 64 63 68 0 0 -16 68 19 196 ?63 36 113 104 0 0 1 81 1 196 127 100 68 0 0
 108 115 197 81 1 108 126 100 36 0 0 198 196 199 81 1 115 128 100 113 0 0 196 12
3 200 83 3 197 1 .67 0 81 1 123 129 100 111 0 0 115 110 201 83 3 200 1 .67 0 81
 1 110 130 100 88 0 0 123 117 202 83 3 201 1 .67 0 81 1 117 131 100 112 0 0 110
 125 203 83 3 202 1 .67 0 81 1 125 132 100 59 0 0 117 121 204 83 3 203 1 .67 0 8
1 1 121 133 100 119 0 0 125 0 205 83 3 204 1 .67 0 83 3 205 1 .67 0 81 1 198 125
 100 83 0 0 82 108 206 83 3 199 1 .67 0 16 83 13 198 ?34 75 36 106 0 0 1 81 1 82
 124 100 75 0 0 97 198 207 83 3 206 1 .67 0 83 3 207 1 .67 0 17 34 0 32 29 63 30
 140 83 0 141 +30 106 14 0 83 103 104 0 +.72 .0756155281280883 .025 -.9701425001
45332 -.242535625036333 0 30 103 11 0 98 84 106 0 +.72 -.0756155281280883 .025 0
 1 0 30 84 7 0 75 0 103 0 +.417537887487647 -1734723475976805e-33 .025 .97014250
0145332 -.242535625036333 0 17 141 0 139 140 118 30 26 10 0 0 -17 26 0 61 58 35
 53 141 10 0 118 +17 35 0 61 26 37 30 29 36 0 34 -17 37 0 61 35 58 11 62 27 0 74
 -17 62 0 81 52 74 22 37 27 0 57 +17 57 0 55 54 90 22 52 88 0 0 -17 90 0 55 57 1
43 51 50 111 0 0 -17 50 0 89 80 85 48 90 111 0 95 +83 3 149 1 .67 0 81 1 101 122
 100 98 0 0 132 97 208 83 3 138 1 .67 0 83 3 208 1 .67 0 83 3 133 1 .67 0 83 3 1
02 1 .67 0 19 17 102 0 1 0 9 5 S0 74 4 CI16 index_map_offset0 0 1 dCCZ20 15 5 0
 0 175 185 13 2 121 0 0 0 0 0 0 0 0 0 0 0 0 0 0 0 80 1 12 193 209 9000 0 0 0 0 3
 5 0 0 0 FFTFFFFFFFFFFF3 84 7 14 PLATE_279 15 209 AdamsObjectName1 0 
