**ABCDEFGHIJKLMNOPQRSTUVWXYZabcdefghijklmnopqrstuvwxyz**************************
**PARASOLID !"#$%&'()*+,-./:;<=>?@[\]^_`{|}~0123456789**************************
**PART1;
MC=unknown;
MC_MODEL=unknown;
MC_ID=unknown;
OS=unknown;
OS_RELEASE=unknown;
FRU=sdl_parasolid_customer_support;
APPL=parasolid_acceptance_tests;
SITE=unknown;
USER=unknown;
FORMAT=text;
GUISE=transmit;
KEY=C:/Users/py033/Desktop/hulk/p3;
FILE=C:/Users/py033/Desktop/hulk/p3.xmt_txt;
DATE=unknown;
**PART2;
SCH=SCH_2400164_20000;
USFLD_SIZE=0;
**PART3;
**END_OF_HEADER*****************************************************************
T51 : TRANSMIT FILE created by modeller version 240016423 SCH_2400164_20000_1300
6186 0 12 27 CCCCCCCCCCCCCCCCCCCCCCCA16 index_map_offset0 0 1 dA9 index_map82 0
 A17 node_id_index_map82 0 A20 schema_embedding_map82 0 Z1 132 2 3 0 0 0 0 1e3 1
e-8 0 4 0 1 0 1 1 5 6 7 8 9 10 11 0 0 0 0 81 255 1 2 106 12 1 13 0 0 0 14 70 11
 CI9 list_type0 0 1 uI10 notransmit0 0 1 lCCCDCCDI12 finger_index0 0 1 dI12 fing
er_block1012 0 CZ3 0 4 T1 0 0 4 20 1 15 15 13 255 5 3 0 1 0 16 0 0 17 0 51 255 6
 100 0 18 19 0 0 +.15 .63 .025 0 0 -1 .02 -1 0 0 30 255 7 94 0 20 21 0 0 +.15848
7440222118 .611890241346833 .025 0 0 -1 29 255 8 65 0 22 23 0 -.02 .5597 -.025 1
9 255 9 1 0 1 17 0 24 V16 255 10 72 25 ?26 0 27 28 0 0 1 18 255 11 35 0 29 0 30
 31 ?1 17 255 29 0 32 33 34 11 35 27 0 36 -18 30 32 0 37 11 38 39 ?1 29 31 37 0
 11 39 40 -.02 .5597 .025 29 39 34 0 30 41 31 .00848744022211784 .54159024134683
3 .025 29 40 70 0 42 31 43 .158487440222118 .611890241346833 -.025 18 42 57 0 44
 45 0 40 ?1 29 43 69 0 45 40 46 .15 .65 -.025 18 45 56 0 47 48 42 43 ?1 29 46 68
 0 48 43 49 0 .65 -.025 18 48 55 0 50 51 45 46 ?1 29 49 67 0 51 46 23 -.02 .63 -
.025 18 51 54 0 52 53 48 49 ?1 29 23 66 0 53 49 8 .00848744022211784 .5415902413
46833 -.025 18 53 53 0 26 22 51 23 ?1 17 26 0 54 55 56 53 37 10 0 57 +18 22 52 0
 35 58 53 8 ?1 17 35 0 59 57 36 22 29 27 0 34 +18 58 18 0 60 61 22 62 ?1 17 60 0
 54 56 55 58 44 20 0 63 -18 61 21 0 64 65 58 66 ?1 29 62 20 0 58 0 66 .158487440
222118 .611890241346833 .025 29 66 23 0 61 62 67 .15 .65 .025 29 67 27 0 65 66 4
1 0 .65 .025 18 65 25 0 68 38 61 67 ?1 29 41 30 0 38 67 39 -.02 .63 .025 18 38 2
8 0 69 30 65 41 ?1 17 69 0 70 71 72 38 52 73 0 33 -15 255 70 79 0 72 74 0 17 71
 0 70 50 69 65 75 76 0 77 +17 72 0 70 69 50 51 78 79 0 80 -17 52 0 32 34 33 51 6
9 73 0 72 +16 73 73 81 ?52 27 82 83 0 0 1 17 33 0 32 52 29 38 84 85 0 75 +15 32
 81 0 34 86 0 17 84 0 87 88 75 11 33 85 0 0 -16 85 6 89 ?33 76 90 91 0 0 1 17 75
 0 87 84 77 38 71 76 0 0 -15 87 15 0 92 93 0 17 77 0 87 75 94 65 95 96 0 0 -16 7
6 26 97 ?71 96 85 98 0 0 1 81 1 97 122 99 76 0 0 100 89 101 16 96 10 100 ?95 20
 76 102 0 0 1 31 255 98 31 0 76 103 104 0 +284939396893721e-33 .63 .025 0 0 -1 -
1 0 0 .02 31 103 24 0 105 106 98 0 +.15 .63 .025 0 0 -1 -1 0 0 .02 31 104 38 0 1
07 98 108 0 +128650137697515e-32 .5597 .025 0 0 -1 -1 0 0 .02 16 107 33 109 ?36
 90 105 104 0 0 1 30 108 64 0 110 104 111 0 +-.02 .528239127696067 -.025 -284939
396893721e-31 1 0 16 110 48 112 ?80 79 113 108 0 0 1 30 111 63 0 114 108 115 0 +
-.02 .65 -.025 1 0 0 16 114 46 116 ?117 105 79 111 0 0 1 30 115 62 0 113 111 118
 0 +.23980271473101 .65 -.025 -.905487932658377 -.424372011105892 0 16 113 49 11
9 ?120 110 121 115 0 0 1 31 118 61 0 122 115 123 0 +.15 .63 -.025 0 0 -1 -1 0 0
 .02 16 122 51 124 ?125 121 0 118 0 0 1 31 123 60 0 79 118 126 0 +28493939689372
1e-33 .63 -.025 0 0 -1 -1 0 0 .02 16 79 47 127 ?78 114 110 123 0 0 1 31 126 59 0
 121 123 128 0 +128650137697515e-32 .5597 -.025 0 0 -1 -1 0 0 .02 16 121 50 129
 ?130 113 122 126 0 0 1 30 128 89 0 27 126 28 0 +-.02 .5597 .025 0 0 -1 16 27 71
 131 ?35 10 73 128 0 0 1 30 28 90 0 10 128 83 0 +.00848744022211784 .54159024134
6833 .025 0 0 -1 30 83 91 0 73 28 132 0 +-.02 .63 .025 0 0 -1 30 132 92 0 82 83
 21 0 +0 .65 .025 0 0 -1 16 82 74 133 ?50 73 134 132 0 0 1 30 21 93 0 134 132 7
 0 +.15 .65 .025 0 0 -1 16 134 75 135 ?47 82 20 21 0 0 1 81 1 135 119 99 134 0 0
 133 136 137 17 47 0 138 139 95 45 64 134 0 140 +16 20 76 136 ?44 134 96 7 0 0 1
 81 1 136 120 99 20 0 0 135 100 141 17 44 0 142 140 63 42 60 20 0 125 +15 142 87
 0 140 18 0 17 140 0 142 64 44 45 125 122 0 117 -17 63 0 142 44 64 58 94 105 0 9
2 +17 125 0 143 120 117 42 140 122 0 55 +15 143 45 0 120 144 0 17 120 0 143 130
 125 53 55 113 0 0 +17 117 0 143 125 78 45 139 114 0 0 +17 55 0 54 60 26 42 120
 113 0 0 -15 54 83 0 55 16 0 14 255 16 84 145 ?146 0 54 5 147 +0 0 146 0 24 81 1
 145 107 99 16 148 0 0 149 150 14 146 86 149 ?86 16 59 5 19 +0 0 86 16 24 50 255
 147 98 0 16 151 19 0 +.23980271473101 .65 .025 .424372011105892 -.9054879326583
77 0 .905487932658377 .424372011105892 0 13 24 101 0 0 0 0 0 0 9 16 50 151 97 0
 86 152 147 0 +-.02 .528239127696067 .025 -1 -284939396893721e-31 0 284939396893
721e-31 -1 0 51 19 99 0 146 147 6 0 +128650137697515e-32 .5597 .025 0 0 -1 .02 -
1 0 0 14 86 82 153 ?74 146 32 5 151 +0 0 74 146 24 51 152 96 0 74 154 151 0 +284
939396893721e-33 .63 .025 0 0 -1 .02 -1 0 0 14 74 80 155 ?156 86 70 5 152 +0 0 1
56 86 24 50 154 95 0 156 157 152 0 +-.02 .65 .025 0 1 0 0 0 1 14 156 78 158 ?18
 74 138 5 154 +0 0 18 74 24 50 157 58 0 144 159 154 0 +0 .5597 -.025 0 0 -1 -1 0
 0 14 144 44 160 ?0 93 143 5 157 +0 0 0 93 24 50 159 17 0 93 0 157 0 +0 .5597 .0
25 0 0 -1 -1 0 0 14 93 16 161 ?144 18 87 5 159 -0 0 144 18 24 81 1 161 113 99 93
 162 0 163 160 164 14 18 88 163 ?93 156 142 5 6 +0 0 93 156 24 81 1 163 112 99 1
8 165 0 158 161 166 80 255 1 99 0 167 8001 0 0 0 0 3 5 0 0 0 FFFFTFTFFFFFFF2 91
 255 165 0 168 18 0 163 162 169 81 1 158 111 99 156 169 0 155 163 170 83 255 3 1
66 1 .67 0 91 169 0 168 156 0 158 165 171 81 1 155 110 99 74 171 0 153 158 172 8
3 3 170 1 .67 0 91 171 0 168 74 0 155 169 173 81 1 153 109 99 86 173 0 149 155 1
74 83 3 172 1 .67 0 91 173 0 168 86 0 153 171 175 81 1 149 108 99 146 175 0 145
 153 176 83 3 174 1 .67 0 91 175 0 168 146 0 149 173 148 83 3 176 1 .67 0 90 255
 168 103 0 1 0 177 2 148 91 148 0 168 16 0 145 175 0 81 1 177 104 178 1 168 13 0
 0 179 80 1 178 180 181 9000 0 0 0 0 3 5 0 0 0 FFTFFFFFFFFFFF1 81 1 13 105 182 1
 177 2 0 0 183 82 255 1 179 4 80 1 182 178 184 9000 0 0 0 0 3 5 0 0 0 FFTFFFFFFF
FFFF3 84 255 6 183 PART_479 255 13 184 AdamsPartName79 12 181 UG2/ADAMS_ID91 162
 0 168 93 0 161 185 165 91 185 0 168 144 0 160 0 162 81 1 160 114 99 144 185 0 1
61 25 186 81 1 25 115 99 10 0 0 160 131 187 83 3 186 1 .67 0 81 1 131 116 99 27
 0 0 25 81 188 83 3 187 1 .67 0 81 1 81 117 99 73 0 0 131 133 189 83 3 188 1 .67
 0 81 1 133 118 99 82 0 0 81 135 190 83 3 189 1 .67 0 83 3 190 1 .67 0 79 15 167
 SDL/TYSA_COLOUR83 3 164 1 .67 0 15 138 77 0 139 156 0 17 139 0 138 68 47 48 117
 114 0 78 -17 68 0 138 95 139 65 50 82 0 71 -17 78 0 143 117 80 48 72 79 0 0 +17
 80 0 143 78 130 51 34 110 0 0 +17 130 0 143 80 120 22 57 121 0 0 +17 34 0 32 29
 52 22 80 110 0 130 -17 57 0 59 37 35 53 130 121 0 120 -15 59 85 0 57 146 0 17 3
7 0 59 36 57 30 26 10 0 88 -17 36 0 59 35 37 11 88 107 0 84 +17 88 0 87 92 84 30
 36 107 0 56 -17 92 0 87 94 88 58 56 90 0 0 -17 56 0 54 26 60 30 92 90 0 0 +16 9
0 13 191 ?56 85 107 106 0 0 1 81 1 191 124 99 90 0 0 89 109 192 30 106 14 0 90 1
02 103 0 +.23980271473101 .65 .025 -.905487932658377 -.424372011105892 0 30 102
 11 0 96 91 106 0 +-.02 .65 .025 1 0 0 30 91 7 0 85 0 102 0 +-.02 .5282391276960
67 .025 -284939396893721e-31 1 0 81 1 89 123 99 85 0 0 97 191 193 81 1 109 125 9
9 107 0 0 191 194 195 83 3 192 1 .67 0 81 1 194 126 99 105 0 0 109 116 196 83 3
 195 1 .67 0 16 105 19 194 ?63 107 114 103 0 0 1 81 1 116 127 99 114 0 0 194 127
 197 83 3 196 1 .67 0 81 1 127 128 99 79 0 0 116 112 198 83 3 197 1 .67 0 81 1 1
12 129 99 110 0 0 127 119 199 83 3 198 1 .67 0 81 1 119 130 99 113 0 0 112 129 2
00 83 3 199 1 .67 0 81 1 129 131 99 121 0 0 119 124 201 83 3 200 1 .67 0 81 1 12
4 132 99 122 0 0 129 0 202 83 3 201 1 .67 0 83 3 202 1 .67 0 83 3 193 1 .67 0 17
 94 0 87 77 92 61 63 105 0 0 -17 95 0 138 47 68 61 77 96 0 94 +17 50 0 70 72 71
 48 68 82 0 139 +83 3 150 1 .67 0 17 64 0 142 63 140 61 47 134 0 95 -81 1 100 12
1 99 96 0 0 136 97 203 83 3 141 1 .67 0 83 3 203 1 .67 0 83 3 137 1 .67 0 83 3 1
01 1 .67 0 19 17 102 0 1 0 9 5 S74 4 CI16 index_map_offset0 0 1 dCCZ20 15 4 0 0
 177 13 2 124 0 0 0 0 0 0 0 0 0 0 0 0 0 0 0 0 80 1 12 182 204 9000 0 0 0 0 3 5 0
 0 0 FFTFFFFFFFFFFF3 84 7 14 PLATE_379 15 204 AdamsObjectName1 0 
