**ABCDEFGHIJKLMNOPQRSTUVWXYZabcdefghijklmnopqrstuvwxyz**************************
**PARASOLID !"#$%&'()*+,-./:;<=>?@[\]^_`{|}~0123456789**************************
**PART1;
MC=unknown;
MC_MODEL=unknown;
MC_ID=unknown;
OS=unknown;
OS_RELEASE=unknown;
FRU=sdl_parasolid_customer_support;
APPL=parasolid_acceptance_tests;
SITE=unknown;
USER=unknown;
FORMAT=text;
GUISE=transmit;
KEY=C:/Users/py033/Desktop/hulk/p4;
FILE=C:/Users/py033/Desktop/hulk/p4.xmt_txt;
DATE=unknown;
**PART2;
SCH=SCH_2400164_20000;
USFLD_SIZE=0;
**PART3;
**END_OF_HEADER*****************************************************************
T51 : TRANSMIT FILE created by modeller version 240016423 SCH_2400164_20000_1300
6186 0 12 27 CCCCCCCCCCCCCCCCCCCCCCCA16 index_map_offset0 0 1 dA9 index_map82 0
 A17 node_id_index_map82 0 A20 schema_embedding_map82 0 Z1 89 2 3 0 0 0 0 1e3 1e
-8 0 4 0 1 0 1 1 5 6 7 8 9 10 11 0 0 0 0 81 255 1 2 71 12 1 13 0 0 0 14 70 11 CI
9 list_type0 0 1 uI10 notransmit0 0 1 lCCCDCCDI12 finger_index0 0 1 dI12 finger_
block1012 0 CZ3 0 4 T1 0 0 4 20 1 15 15 13 255 5 3 0 1 0 16 0 0 17 0 51 255 6 65
 0 16 18 0 0 +.15 .63 -.00838361497205 0 0 1 .01676722994415 1 0 0 30 255 7 61 0
 10 19 0 0 +.15 .61323277005585 -.00838361497205 0 0 1 29 255 8 42 0 20 21 0 .15
 .64676722994415 .00838361497205 19 255 9 1 0 1 17 0 22 V16 255 10 49 23 ?24 0 2
5 7 0 0 1 18 255 11 13 0 26 0 27 28 ?1 17 255 26 0 29 30 31 11 32 33 0 34 -18 27
 9 0 35 11 36 37 ?1 29 28 16 0 11 37 38 .15 .64676722994415 -.00838361497205 29
 37 12 0 27 39 28 .316 .64676722994415 -.00838361497205 29 38 45 0 40 28 41 .15
 .61323277005585 .00838361497205 18 40 36 0 24 42 0 38 ?1 29 41 44 0 42 38 21 .3
16 .61323277005585 .00838361497205 18 42 35 0 43 44 40 41 ?1 29 21 43 0 44 41 8
 .316 .64676722994415 .00838361497205 18 44 34 0 45 20 42 21 ?1 17 45 0 46 47 48
 44 35 49 0 50 +18 20 33 0 32 51 44 8 ?1 17 32 0 52 50 34 20 26 33 0 53 +18 51 2
 0 54 36 20 55 ?1 17 54 0 56 57 58 51 24 10 0 59 -18 36 5 0 60 27 51 39 ?1 29 55
 4 0 51 0 39 .15 .61323277005585 -.00838361497205 29 39 8 0 36 55 37 .316 .61323
277005585 -.00838361497205 17 60 0 46 48 47 36 43 25 0 57 -15 255 46 52 0 47 61
 0 17 48 0 46 45 60 27 62 63 0 64 +17 47 0 46 60 45 42 65 66 0 67 -17 43 0 56 58
 57 42 60 25 0 47 +16 25 48 68 ?43 10 49 19 0 0 1 17 57 0 56 43 54 36 59 69 0 62
 +15 56 54 0 58 70 0 17 59 0 71 72 62 51 57 69 0 30 -16 69 6 73 ?57 63 74 75 0 0
 1 17 62 0 71 59 64 36 48 63 0 0 -15 71 19 0 72 76 0 17 64 0 71 62 72 27 34 77 0
 0 -16 63 10 78 ?48 77 69 79 0 0 1 81 1 78 83 80 63 0 0 81 73 82 16 77 14 81 ?34
 33 63 83 0 0 1 31 255 79 11 0 63 75 83 0 +.316 .63 -.00838361497205 0 0 1 1 0 0
 .01676722994415 30 75 7 0 69 0 79 0 +.15 .61323277005585 -.00838361497205 1 0 0
 30 83 15 0 77 79 84 0 +.316 .64676722994415 -.00838361497205 -1 0 0 31 84 18 0
 74 83 85 0 +.15 .63 -.00838361497205 0 0 1 1 0 0 .01676722994415 16 74 17 86 ?3
0 69 87 84 0 0 1 30 85 41 0 88 84 89 0 +.15 .61323277005585 .00838361497205 1 0
 0 16 88 31 90 ?67 66 91 85 0 0 1 31 89 40 0 66 85 92 0 +.316 .63 .0083836149720
5 0 0 1 1 0 0 .01676722994415 16 66 30 93 ?65 87 88 89 0 0 1 30 92 39 0 87 89 94
 0 +.316 .64676722994415 .00838361497205 -1 0 0 16 87 29 95 ?53 74 66 92 0 0 1 3
1 94 38 0 91 92 96 0 +.15 .63 .00838361497205 0 0 1 1 0 0 .01676722994415 16 91
 32 97 ?98 88 0 94 0 0 1 30 96 58 0 33 94 99 0 +.15 .64676722994415 -.0083836149
7205 0 0 1 16 33 46 100 ?32 49 77 96 0 0 1 30 99 59 0 49 96 19 0 +.316 .64676722
994415 -.00838361497205 0 0 1 16 49 47 101 ?45 25 33 99 0 0 1 30 19 60 0 25 99 7
 0 +.316 .61323277005585 -.00838361497205 0 0 1 81 1 101 80 80 49 0 0 68 100 102
 80 255 1 80 0 103 8001 0 0 0 0 3 5 0 0 0 FFFFTFTFFFFFFF2 81 1 68 79 80 25 0 0 2
3 101 104 81 1 100 81 80 33 0 0 101 81 105 83 255 3 102 0 1 1 81 1 81 82 80 77 0
 0 100 78 106 83 3 105 0 1 1 83 3 106 0 1 1 81 1 23 78 80 10 0 0 107 68 108 83 3
 104 0 1 1 81 1 107 77 80 109 110 0 111 23 112 83 3 108 0 1 1 14 255 109 27 107
 ?0 76 113 5 114 +0 0 0 76 22 91 255 110 0 115 109 0 107 0 116 81 1 111 76 80 76
 116 0 117 107 118 83 3 112 0 1 1 14 76 20 111 ?109 119 71 5 120 -0 0 109 119 22
 91 116 0 115 76 0 111 110 121 81 1 117 75 80 119 121 0 122 111 123 83 3 118 0 1
 1 14 119 51 117 ?76 61 52 5 124 +0 0 76 61 22 91 121 0 115 119 0 117 116 125 81
 1 122 74 80 61 125 0 126 117 127 83 3 123 0 1 1 14 61 53 122 ?119 70 46 5 128 +
0 0 119 70 22 91 125 0 115 61 0 122 121 129 81 1 126 73 80 70 129 0 130 122 131
 83 3 127 0 1 1 14 70 55 126 ?61 16 56 5 18 +0 0 61 16 22 91 129 0 115 70 0 126
 125 132 81 1 130 72 80 16 132 0 0 126 133 83 3 131 0 1 1 14 16 57 130 ?70 0 29
 5 6 +0 0 70 0 22 91 132 0 115 16 0 130 129 0 83 3 133 0 1 1 90 255 115 68 0 1 0
 134 2 132 81 1 134 69 135 1 115 13 0 0 136 80 1 135 137 138 9000 0 0 0 0 3 5 0
 0 0 FFTFFFFFFFFFFF1 81 1 13 70 139 1 134 2 0 0 140 82 255 1 136 5 80 1 139 135
 141 9000 0 0 0 0 3 5 0 0 0 FFTFFFFFFFFFFF3 84 255 6 140 PART_579 255 13 141 Ada
msPartName79 12 138 UG2/ADAMS_ID15 29 56 0 31 16 0 13 22 66 0 0 0 0 0 0 9 16 17
 31 0 29 26 24 20 98 91 0 0 -17 24 0 29 31 30 40 54 10 0 58 +17 98 0 113 67 53 4
0 31 91 0 0 +15 113 28 0 98 109 0 17 67 0 113 65 98 42 58 88 0 0 +17 53 0 113 98
 65 20 50 87 0 31 +17 65 0 113 53 67 44 47 66 0 0 +17 50 0 52 35 32 44 53 87 0 6
5 -15 52 50 0 50 119 0 17 35 0 52 34 50 27 45 49 0 48 -17 34 0 52 32 35 11 64 77
 0 72 +17 72 0 71 64 59 11 30 74 0 0 -17 30 0 29 24 26 51 72 74 0 0 +17 58 0 56
 54 43 40 67 88 0 98 -50 255 18 64 0 70 128 6 0 +.15 .61323277005585 -.008383614
97205 0 -1 0 0 0 -1 51 128 63 0 61 124 18 0 +.316 .63 -.00838361497205 0 0 1 .01
676722994415 1 0 0 50 124 62 0 119 114 128 0 +.316 .64676722994415 -.00838361497
205 0 1 0 0 0 1 50 114 37 0 109 120 124 0 +.15 .63 .00838361497205 0 0 1 1 0 0 5
0 120 21 0 76 0 114 0 +.15 .63 -.00838361497205 0 0 1 1 0 0 79 15 103 SDL/TYSA_C
OLOUR81 1 97 89 80 91 0 0 90 0 142 81 1 90 88 80 88 0 0 93 97 143 83 3 142 0 1 1
 81 1 93 87 80 66 0 0 95 90 144 83 3 143 0 1 1 81 1 95 86 80 87 0 0 86 93 145 83
 3 144 0 1 1 81 1 86 85 80 74 0 0 73 95 146 83 3 145 0 1 1 81 1 73 84 80 69 0 0
 78 86 147 83 3 146 0 1 1 83 3 147 0 1 1 83 3 82 0 1 1 19 17 67 0 1 0 9 5 S74 4
 CI16 index_map_offset0 0 1 dCCZ20 15 4 0 0 134 13 2 97 0 0 0 0 0 0 0 0 0 0 0 0
 0 0 0 0 80 1 12 139 148 9000 0 0 0 0 3 5 0 0 0 FFTFFFFFFFFFFF3 84 6 14 LINK_479
 15 148 AdamsObjectName1 0 
