**ABCDEFGHIJKLMNOPQRSTUVWXYZabcdefghijklmnopqrstuvwxyz**************************
**PARASOLID !"#$%&'()*+,-./:;<=>?@[\]^_`{|}~0123456789**************************
**PART1;
MC=unknown;
MC_MODEL=unknown;
MC_ID=unknown;
OS=unknown;
OS_RELEASE=unknown;
FRU=sdl_parasolid_customer_support;
APPL=parasolid_acceptance_tests;
SITE=unknown;
USER=unknown;
FORMAT=text;
GUISE=transmit;
KEY=C:/Users/py033/Desktop/hulk/p6;
FILE=C:/Users/py033/Desktop/hulk/p6.xmt_txt;
DATE=unknown;
**PART2;
SCH=SCH_2400164_20000;
USFLD_SIZE=0;
**PART3;
**END_OF_HEADER*****************************************************************
T51 : TRANSMIT FILE created by modeller version 240016423 SCH_2400164_20000_1300
6186 0 12 27 CCCCCCCCCCCCCCCCCCCCCCCA16 index_map_offset0 0 1 dA9 index_map82 0
 A17 node_id_index_map82 0 A20 schema_embedding_map82 0 Z1 203 2 3 0 0 0 0 1e3 1
e-8 0 4 0 1 0 1 1 5 6 7 8 9 10 11 0 0 0 0 81 255 1 2 161 12 1 13 0 0 0 14 70 11
 CI9 list_type0 0 1 uI10 notransmit0 0 1 lCCCDCCDI12 finger_index0 0 1 dI12 fing
er_block1012 0 CZ3 0 4 T1 0 0 4 20 1 15 15 13 255 5 156 0 1 0 16 0 0 17 0 51 255
 6 155 0 18 19 0 0 -.45 .7 .025 0 0 -1 .02 -1 0 0 30 255 7 145 0 20 21 0 0 +.38
 .63 .025 0 0 -1 29 255 8 96 0 22 23 0 .38 .7 -.025 19 255 9 1 0 1 17 0 24 V16 2
55 10 107 25 ?26 0 27 28 0 0 1 18 255 11 54 0 29 0 30 31 ?1 17 255 29 0 32 33 34
 11 35 36 0 37 +18 30 51 0 35 11 38 39 ?1 29 31 56 0 11 39 40 .38 .7 .025 29 39
 53 0 30 41 31 .4 .72 .025 29 40 105 0 42 31 43 .38 .63 -.025 18 42 84 0 44 45 0
 40 ?1 29 43 104 0 45 40 46 .47 .6 -.025 18 45 83 0 47 48 42 43 ?1 29 46 103 0 4
8 43 49 .45 .72 -.025 18 48 82 0 50 51 45 46 ?1 29 49 102 0 51 46 52 .47 .7 -.02
5 18 51 81 0 53 54 48 49 ?1 29 52 101 0 54 49 55 .47 .55 -.025 18 54 80 0 56 57
 51 52 ?1 29 55 100 0 57 52 58 .45 .53 -.025 18 57 79 0 59 60 54 55 ?1 29 58 99
 0 60 55 61 .4 .53 -.025 18 60 78 0 62 63 57 58 ?1 29 61 98 0 63 58 23 .38 .55 -
.025 18 63 77 0 64 65 60 61 ?1 29 23 97 0 65 61 8 .4 .72 -.025 18 65 76 0 66 22
 63 23 ?1 17 66 0 67 68 69 65 70 71 0 26 -18 22 75 0 70 72 65 8 ?1 17 70 0 73 37
 26 22 66 71 0 74 +18 72 5 0 33 75 22 76 ?1 17 33 0 32 77 29 72 78 79 0 80 +18 7
5 17 0 81 82 72 83 ?1 29 76 8 0 72 0 83 .38 .63 .025 29 83 20 0 75 76 84 .47 .6
 .025 29 84 32 0 82 83 85 .45 .72 .025 18 82 30 0 86 87 75 84 ?1 29 85 35 0 87 8
4 88 .47 .7 .025 18 87 33 0 89 90 82 85 ?1 29 88 39 0 90 85 91 .47 .55 .025 18 9
0 37 0 92 93 87 88 ?1 29 91 42 0 93 88 94 .45 .53 .025 18 93 40 0 95 96 90 91 ?1
 29 94 46 0 96 91 41 .4 .53 .025 18 96 44 0 97 38 93 94 ?1 29 41 49 0 38 94 39 .
38 .55 .025 18 38 47 0 77 30 96 41 ?1 17 77 0 32 97 33 38 98 99 0 100 +15 255 32
 27 0 34 101 0 17 97 0 32 95 77 96 102 103 0 104 +17 98 0 105 106 100 72 77 99 0
 0 -16 99 10 107 ?77 103 79 108 0 0 1 17 100 0 105 98 64 38 109 110 0 102 -15 10
5 126 0 64 111 0 17 64 0 105 100 106 63 112 113 0 109 +17 109 0 114 62 102 63 10
0 110 0 115 +16 110 108 116 ?109 20 117 118 0 0 1 17 102 0 114 109 104 38 97 103
 0 0 -15 114 124 0 62 119 0 17 104 0 114 102 62 96 120 117 0 121 -16 103 45 122
 ?97 123 99 124 0 0 1 81 1 122 188 125 103 0 0 126 107 127 16 123 14 126 ?95 128
 103 129 0 0 1 31 255 124 50 0 103 130 131 0 +.4 .55 .025 0 0 1 1 0 0 .02 31 130
 43 0 128 132 124 0 +.45 .55 .025 0 0 1 1 0 0 .02 31 131 57 0 36 124 133 0 +.4 .
7 .025 0 0 1 1 0 0 .02 16 36 52 134 ?29 135 136 131 0 0 1 30 133 95 0 137 131 13
8 0 +.38 .72 -.025 0 -1 0 16 137 71 139 ?44 113 140 133 0 0 1 30 138 94 0 113 13
3 141 0 +.38 .63 -.025 0 -1 0 16 113 70 142 ?64 143 137 138 0 0 1 30 141 93 0 14
4 138 145 0 +.38 .53 -.025 1 0 0 16 144 68 146 ?59 147 143 141 0 0 1 30 145 92 0
 148 141 149 0 +.47 .53 -.025 0 1 0 16 148 66 150 ?47 151 147 145 0 0 1 30 149 9
1 0 151 145 152 0 +.47 .6 -.025 0 1 0 16 151 65 153 ?53 136 148 149 0 0 1 30 152
 90 0 140 149 154 0 +.47 .72 -.025 -1 0 0 16 140 72 155 ?156 137 71 152 0 0 1 31
 154 89 0 157 152 158 0 +.45 .7 -.025 0 0 1 1 0 0 .02 16 157 74 159 ?50 71 0 154
 0 0 1 31 158 88 0 147 154 160 0 +.45 .55 -.025 0 0 1 1 0 0 .02 16 147 67 161 ?5
6 148 144 158 0 0 1 31 160 87 0 143 158 162 0 +.4 .55 -.025 0 0 1 1 0 0 .02 16 1
43 69 163 ?62 144 113 160 0 0 1 31 162 86 0 71 160 164 0 +.4 .7 -.025 0 0 1 1 0
 0 .02 16 71 73 165 ?70 140 157 162 0 0 1 30 164 136 0 27 162 28 0 +.38 .7 .025
 0 0 -1 16 27 106 166 ?74 10 20 164 0 0 1 30 28 137 0 10 164 118 0 +.4 .72 .025
 0 0 -1 30 118 138 0 110 28 167 0 +.38 .55 .025 0 0 -1 30 167 139 0 117 118 168
 0 +.4 .53 .025 0 0 -1 16 117 109 169 ?120 110 170 167 0 0 1 30 168 140 0 170 16
7 171 0 +.45 .53 .025 0 0 -1 16 170 110 172 ?173 117 174 168 0 0 1 30 171 141 0
 174 168 175 0 +.47 .55 .025 0 0 -1 16 174 111 176 ?177 170 178 171 0 0 1 30 175
 142 0 179 171 180 0 +.47 .7 .025 0 0 -1 16 179 112 181 ?182 178 183 175 0 0 1 3
0 180 143 0 183 175 21 0 +.45 .72 .025 0 0 -1 16 183 113 184 ?185 179 186 180 0
 0 1 30 21 144 0 178 180 7 0 +.47 .6 .025 0 0 -1 16 178 114 187 ?188 174 179 21
 0 0 1 81 1 187 181 125 178 0 0 176 181 189 17 188 0 190 53 191 45 192 178 0 193
 +15 190 116 0 53 194 0 17 53 0 190 195 188 51 193 151 0 182 +17 191 0 190 188 1
95 75 89 186 0 0 -17 192 0 196 197 47 75 188 178 0 191 -17 193 0 67 198 199 45 5
3 151 0 0 -15 67 64 0 68 200 0 17 198 0 67 201 193 54 47 148 0 0 -17 199 0 67 19
3 68 51 50 157 0 0 -17 68 0 67 199 66 48 156 140 0 0 -17 50 0 202 203 182 48 199
 157 0 185 +15 202 134 0 50 18 0 17 203 0 202 204 50 82 185 183 0 205 -17 182 0
 202 50 204 51 195 179 0 199 +17 185 0 206 156 205 48 203 183 0 68 +15 206 130 0
 156 16 0 17 156 0 206 207 185 65 68 140 0 0 +17 205 0 206 185 207 82 34 135 0 0
 -17 207 0 206 205 156 30 26 10 0 0 -17 34 0 32 29 86 30 205 135 0 207 +16 135 2
5 208 ?34 79 36 209 0 0 1 81 1 208 191 125 135 0 0 210 134 211 16 79 6 210 ?33 9
9 135 212 0 0 1 30 209 26 0 135 213 132 0 +.47 .72 .025 -1 0 0 30 213 23 0 186 2
14 209 0 +.47 .6 .025 0 1 0 31 132 36 0 136 209 130 0 +.45 .7 .025 0 0 1 1 0 0 .
02 16 136 31 215 ?86 36 151 132 0 0 1 81 1 215 193 125 136 0 0 134 153 216 17 86
 0 32 34 89 82 204 136 0 203 +17 89 0 32 86 81 87 191 186 0 195 +17 204 0 202 18
2 203 87 86 136 0 0 -17 81 0 32 89 92 75 197 217 0 192 +16 186 22 218 ?89 183 21
7 213 0 0 1 17 195 0 190 191 53 87 182 179 0 204 -81 1 218 184 125 186 0 0 184 2
19 220 16 217 18 219 ?81 186 128 214 0 0 1 81 1 219 185 125 217 0 0 218 221 222
 16 128 38 221 ?92 217 123 130 0 0 1 30 214 19 0 217 129 213 0 +.47 .53 .025 0 1
 0 30 129 15 0 123 108 214 0 +.38 .53 .025 1 0 0 30 108 11 0 99 212 129 0 +.38 .
63 .025 0 -1 0 30 212 7 0 79 0 108 0 +.38 .72 .025 0 -1 0 81 1 221 186 125 128 0
 0 219 126 223 17 92 0 32 81 95 90 224 128 0 225 +17 95 0 32 92 97 93 121 123 0
 226 +17 224 0 227 173 225 93 92 128 0 0 -17 225 0 227 224 56 90 177 174 0 197 -
15 227 120 0 56 228 0 17 56 0 227 225 173 54 201 147 0 177 +17 177 0 196 47 197
 54 225 174 0 198 +17 197 0 196 177 192 90 81 217 0 0 -15 196 118 0 47 229 0 17
 47 0 196 192 177 45 198 148 0 188 +14 255 229 119 230 ?194 228 196 5 231 -0 0 1
94 228 24 81 1 230 169 125 229 232 0 233 234 235 14 194 117 234 ?18 229 190 5 23
6 -0 0 18 229 24 14 228 121 233 ?229 237 227 5 238 -0 0 229 237 24 50 255 231 14
7 0 229 236 238 0 +.47 .53 .025 -1 0 0 0 0 1 13 24 3 0 0 0 0 0 0 9 16 14 16 131
 239 ?240 0 206 5 241 -0 0 240 0 24 81 1 239 162 125 16 242 0 0 243 244 14 240 1
33 243 ?245 16 73 5 19 -0 0 245 16 24 50 241 153 0 16 246 19 0 +.47 .72 .025 0 -
1 0 0 0 -1 50 246 152 0 245 247 241 0 +.38 .72 .025 1 0 0 0 0 -1 51 19 154 0 240
 241 6 0 -.4 .7 .025 0 0 -1 .02 -1 0 0 14 245 129 248 ?111 240 249 5 246 -0 0 11
1 240 24 50 247 151 0 111 250 246 0 +.38 .63 .025 1 0 0 0 0 -1 14 111 127 251 ?1
19 245 105 5 247 -0 0 119 245 24 51 250 150 0 119 252 247 0 -.4 .55 .025 0 0 -1
 .02 -1 0 0 14 119 125 253 ?237 111 114 5 250 -0 0 237 111 24 50 252 149 0 237 2
38 250 0 +.38 .53 .025 0 1 0 0 0 1 14 237 123 254 ?228 119 255 5 252 -0 0 228 11
9 24 51 238 148 0 228 231 252 0 -.45 .55 .025 0 0 -1 .02 -1 0 0 81 1 254 167 125
 237 256 0 253 233 257 15 255 122 0 59 237 0 17 59 0 255 226 120 57 258 144 0 17
3 +17 226 0 255 121 59 93 173 170 0 224 -17 120 0 255 59 121 60 104 117 0 258 +1
7 258 0 67 115 201 60 59 144 0 0 -17 173 0 227 56 224 57 226 170 0 201 +17 201 0
 67 258 198 57 56 147 0 0 -17 115 0 67 112 258 63 62 143 0 0 -17 112 0 67 69 115
 42 64 113 0 0 -17 62 0 114 104 109 60 115 143 0 120 +17 69 0 67 66 112 22 44 13
7 0 0 -17 44 0 249 80 74 42 69 137 0 106 +15 249 128 0 44 245 0 17 80 0 249 78 4
4 72 106 20 0 98 -17 74 0 249 44 78 22 37 27 0 69 +17 106 0 105 64 98 42 80 20 0
 112 +16 20 115 259 ?106 27 110 7 0 0 1 81 1 259 176 125 20 0 0 166 116 260 80 2
55 1 125 0 261 8001 0 0 0 0 3 5 0 0 0 FFFFTFTFFFFFFF2 81 1 166 175 125 27 0 0 25
 259 262 81 1 116 177 125 110 0 0 259 169 263 83 255 3 260 1 0 0 81 1 169 178 12
5 117 0 0 116 172 264 83 3 263 1 0 0 81 1 172 179 125 170 0 0 169 176 265 83 3 2
64 1 0 0 81 1 176 180 125 174 0 0 172 187 266 83 3 265 1 0 0 83 3 266 1 0 0 81 1
 25 174 125 10 0 0 267 166 268 83 3 262 1 0 0 81 1 267 173 125 200 269 0 270 25
 271 83 3 268 1 0 0 14 200 63 267 ?0 101 67 5 272 -0 0 0 101 24 91 255 269 0 273
 200 0 267 0 274 81 1 270 172 125 101 274 0 275 267 276 83 3 271 1 0 0 14 101 28
 270 ?200 18 32 5 277 +0 0 200 18 24 91 274 0 273 101 0 270 269 278 81 1 275 171
 125 18 278 0 234 270 279 83 3 276 1 0 0 14 18 135 275 ?101 194 202 5 6 -0 0 101
 194 24 91 278 0 273 18 0 275 274 280 81 1 234 170 125 194 280 0 230 275 281 83
 3 279 1 0 0 91 280 0 273 194 0 234 278 232 83 3 281 1 0 0 90 255 273 158 0 1 0
 282 2 242 91 232 0 273 229 0 230 280 283 91 283 0 273 228 0 233 232 256 81 1 23
3 168 125 228 283 0 254 230 284 91 256 0 273 237 0 254 283 285 91 285 0 273 119
 0 253 256 286 81 1 253 166 125 119 285 0 251 254 287 91 286 0 273 111 0 251 285
 288 81 1 251 165 125 111 286 0 248 253 289 91 288 0 273 245 0 248 286 290 81 1
 248 164 125 245 288 0 243 251 291 91 290 0 273 240 0 243 288 242 81 1 243 163 1
25 240 290 0 239 248 292 91 242 0 273 16 0 239 290 0 83 3 292 1 0 0 83 3 291 1 0
 0 83 3 289 1 0 0 83 3 287 1 0 0 83 3 284 1 0 0 81 1 282 159 293 1 273 13 0 0 29
4 80 1 293 295 296 9000 0 0 0 0 3 5 0 0 0 FFTFFFFFFFFFFF1 81 1 13 160 297 1 282
 2 0 0 298 82 255 1 294 7 80 1 297 293 299 9000 0 0 0 0 3 5 0 0 0 FFTFFFFFFFFFFF
3 84 255 6 298 PART_779 255 13 299 AdamsPartName79 12 296 UG2/ADAMS_ID50 277 29
 0 101 0 272 0 +.4 .7 .025 0 0 1 1 0 0 50 272 85 0 200 277 236 0 +.4 .7 -.025 0
 0 1 1 0 0 50 236 146 0 194 272 231 0 +.47 .6 .025 -1 0 0 0 0 1 79 15 261 SDL/TY
SA_COLOUR17 78 0 249 74 80 11 33 79 0 0 -17 37 0 73 35 70 11 74 27 0 78 -15 73 1
32 0 70 240 0 17 35 0 73 26 37 30 29 36 0 34 -17 26 0 73 70 35 65 207 10 0 156 +
17 121 0 255 120 226 96 95 123 0 0 -83 3 257 1 0 0 83 3 244 1 0 0 83 3 235 1 0 0
 81 1 126 187 125 123 0 0 221 122 300 83 3 223 1 0 0 83 3 300 1 0 0 83 3 222 1 0
 0 81 1 184 183 125 183 0 0 181 218 301 83 3 220 1 0 0 81 1 181 182 125 179 0 0
 187 184 302 83 3 301 1 0 0 83 3 302 1 0 0 81 1 134 192 125 36 0 0 208 215 303 8
1 1 153 194 125 151 0 0 215 150 304 83 3 216 1 0 0 81 1 150 195 125 148 0 0 153
 161 305 83 3 304 1 0 0 81 1 161 196 125 147 0 0 150 146 306 83 3 305 1 0 0 81 1
 146 197 125 144 0 0 161 163 307 83 3 306 1 0 0 81 1 163 198 125 143 0 0 146 142
 308 83 3 307 1 0 0 81 1 142 199 125 113 0 0 163 139 309 83 3 308 1 0 0 81 1 139
 200 125 137 0 0 142 155 310 83 3 309 1 0 0 81 1 155 201 125 140 0 0 139 165 311
 83 3 310 1 0 0 81 1 165 202 125 71 0 0 155 159 312 83 3 311 1 0 0 81 1 159 203
 125 157 0 0 165 0 313 83 3 312 1 0 0 83 3 313 1 0 0 83 3 303 1 0 0 81 1 210 190
 125 79 0 0 107 208 314 81 1 107 189 125 99 0 0 122 210 315 83 3 314 1 0 0 83 3
 315 1 0 0 83 3 211 1 0 0 83 3 189 1 0 0 83 3 127 1 0 0 19 17 157 0 1 0 9 5 S74
 4 CI16 index_map_offset0 0 1 dCCZ20 15 4 0 0 282 13 2 159 0 0 0 0 0 0 0 0 0 0 0
 0 0 0 0 0 80 1 12 297 316 9000 0 0 0 0 3 5 0 0 0 FFTFFFFFFFFFFF3 84 7 14 PLATE_
679 15 316 AdamsObjectName1 0 
