**ABCDEFGHIJKLMNOPQRSTUVWXYZabcdefghijklmnopqrstuvwxyz**************************
**PARASOLID !"#$%&'()*+,-./:;<=>?@[\]^_`{|}~0123456789**************************
**PART1;
MC=unknown;
MC_MODEL=unknown;
MC_ID=unknown;
OS=unknown;
OS_RELEASE=unknown;
FRU=sdl_parasolid_customer_support;
APPL=parasolid_acceptance_tests;
SITE=unknown;
USER=unknown;
FORMAT=text;
GUISE=transmit;
KEY=C:/Users/py033/Desktop/part4;
FILE=C:/Users/py033/Desktop/part4.xmt_txt;
DATE=unknown;
**PART2;
SCH=SCH_2400164_20000;
USFLD_SIZE=0;
**PART3;
**END_OF_HEADER*****************************************************************
T51 : TRANSMIT FILE created by modeller version 240016423 SCH_2400164_20000_1300
6186 0 12 27 CCCCCCCCCCCCCCCCCCCCCCCA16 index_map_offset0 0 1 dA9 index_map82 0
 A17 node_id_index_map82 0 A20 schema_embedding_map82 0 Z1 121 2 3 0 0 0 0 1e3 1
e-8 0 4 0 1 0 1 1 5 6 7 8 9 10 11 0 0 0 0 81 255 1 2 100 12 1 13 0 0 0 14 70 11
 CI9 list_type0 0 1 uI10 notransmit0 0 1 lCCCDCCDI12 finger_index0 0 1 dI12 fing
er_block1012 0 CZ3 0 4 T1 0 0 5 20 1 15 15 13 255 5 3 0 1 0 16 0 0 17 0 50 255 6
 54 0 16 18 0 0 +0 0 .05 0 0 1 1 0 0 30 255 7 62 0 10 19 0 0 +0 -.05 .05 -1 0 0
 29 255 8 58 0 11 20 0 -.05 -.05 .05 19 255 9 1 0 1 17 0 21 V16 255 10 34 22 ?23
 0 24 7 0 0 1 18 255 11 23 0 23 0 25 8 ?1 17 255 23 0 26 27 28 11 29 10 0 30 +18
 25 21 0 31 11 32 20 ?1 17 31 0 33 34 35 25 30 24 0 36 +18 32 19 0 37 25 38 39 ?
1 29 20 57 0 25 39 8 -.05 .05 .05 29 39 56 0 32 40 20 .05 .05 .05 29 40 55 0 38
 41 39 .05 -.05 .05 18 38 17 0 29 32 42 40 ?1 29 41 41 0 43 44 40 -.05 -.05 0 18
 43 11 0 27 45 46 41 ?1 29 44 40 0 45 47 41 -.05 .05 0 18 45 13 0 34 42 43 44 ?1
 29 47 39 0 42 48 44 .05 .05 0 18 42 15 0 49 38 45 47 ?1 29 48 38 0 46 0 47 .05
 -.05 0 18 46 10 0 50 43 0 48 ?1 17 50 0 51 52 53 46 28 54 0 55 -15 255 51 7 0 5
2 56 0 17 52 0 51 57 50 42 58 59 0 0 +17 53 0 51 50 57 38 60 61 0 28 +17 28 0 26
 23 55 38 50 54 0 0 +16 54 18 62 ?28 63 59 64 0 0 1 17 55 0 26 28 27 46 65 66 0
 58 +15 26 32 0 28 67 0 17 27 0 26 55 23 43 35 68 0 69 -17 65 0 70 71 58 43 55 6
6 0 0 -16 66 12 72 ?55 73 74 75 0 0 1 17 58 0 70 65 76 46 52 59 0 0 -15 70 8 0 5
8 77 0 17 76 0 70 58 71 42 78 79 0 52 -16 59 6 80 ?52 54 79 81 0 0 1 81 1 80 116
 82 59 0 0 62 83 84 16 79 16 83 ?78 59 73 85 0 0 1 30 81 43 0 59 75 85 0 +.05 0
 0 0 1 0 30 75 42 0 66 86 81 0 +0 -.05 0 1 0 0 30 85 44 0 79 81 87 0 +0 .05 0 -1
 0 0 30 87 45 0 73 85 64 0 +-.05 0 0 0 -1 0 16 73 14 88 ?69 79 66 87 0 0 1 30 64
 50 0 54 87 89 0 +.05 -.05 0 0 0 1 30 89 51 0 63 64 90 0 +.05 .05 0 0 0 1 16 63
 20 91 ?57 92 54 89 0 0 1 30 90 52 0 92 89 93 0 +-.05 .05 0 0 0 1 16 92 22 94 ?9
5 68 63 90 0 0 1 30 93 53 0 68 90 96 0 +-.05 -.05 0 0 0 1 16 68 24 97 ?35 61 92
 93 0 0 1 30 96 59 0 61 93 98 0 +.05 0 .05 0 -1 0 16 61 25 99 ?53 100 68 96 0 0
 1 30 98 60 0 100 96 19 0 +0 .05 .05 1 0 0 16 100 28 101 ?37 24 61 98 0 0 1 30 1
9 61 0 24 98 7 0 +-.05 0 .05 0 1 0 16 24 31 102 ?31 10 100 19 0 0 1 81 1 102 109
 82 24 0 0 22 101 103 80 255 1 82 0 104 8001 0 0 0 0 3 5 0 0 0 FFFFTFTFFFFFFF2 8
1 1 22 108 82 10 0 0 105 102 106 81 1 101 110 82 100 0 0 102 99 107 83 255 3 103
 1 0 .61 81 1 99 111 82 61 0 0 101 97 108 83 3 107 1 0 .61 81 1 97 112 82 68 0 0
 99 94 109 83 3 108 1 0 .61 81 1 94 113 82 92 0 0 97 91 110 83 3 109 1 0 .61 81
 1 91 114 82 63 0 0 94 62 111 83 3 110 1 0 .61 81 1 62 115 82 54 0 0 91 80 112 8
3 3 111 1 0 .61 83 3 112 1 0 .61 81 1 105 107 82 113 114 0 115 22 116 83 3 106 1
 0 .61 14 255 113 85 105 ?0 56 117 5 118 -0 0 0 56 21 91 255 114 0 119 113 0 105
 0 0 81 1 115 106 82 56 120 0 121 105 122 83 3 116 1 0 .61 14 56 2 115 ?113 77 5
1 5 123 +0 0 113 77 21 91 120 0 124 56 0 115 0 125 81 1 121 105 82 77 125 0 126
 115 127 83 3 122 1 0 .61 14 77 9 121 ?56 128 129 5 130 +0 0 56 128 21 91 125 0
 124 77 0 121 120 131 81 1 126 104 82 128 131 0 132 121 133 83 3 127 1 0 .61 14
 128 27 126 ?77 134 135 5 136 +0 0 77 134 21 91 131 0 124 128 0 126 125 137 81 1
 132 103 82 134 137 0 138 126 139 83 3 133 1 0 .61 14 134 30 132 ?128 67 33 5 14
0 +0 0 128 67 21 91 137 0 124 134 0 132 131 141 81 1 138 102 82 67 141 0 142 132
 143 83 3 139 1 0 .61 14 67 33 138 ?134 16 26 5 18 +0 0 134 16 21 91 141 0 124 6
7 0 138 137 144 81 1 142 101 82 16 144 0 0 138 145 83 3 143 1 0 .61 14 16 36 142
 ?67 0 146 5 6 +0 0 67 0 21 91 144 0 124 16 0 142 141 0 83 3 145 1 0 .61 90 255
 124 63 0 1 0 119 2 144 90 119 73 0 1 124 147 2 114 81 2 147 97 148 1 119 149 0
 0 150 0 80 2 148 151 152 8004 0 0 0 0 3 5 0 0 0 FFTFFFFFFFFFFF2 3 81 1 149 98 1
53 1 147 13 0 0 154 83 1 150 1 80 1 153 155 156 9000 0 0 0 0 3 5 0 0 0 FFTFFFFFF
FFFFF1 81 1 13 99 157 1 149 2 0 0 158 82 255 1 154 7 80 1 157 153 159 9000 0 0 0
 0 3 5 0 0 0 FFTFFFFFFFFFFF3 84 255 6 158 PART_779 255 13 159 AdamsPartName79 12
 156 UG2/ADAMS_ID79 16 152 SDL/TYSA_DENSITY15 146 71 0 160 16 161 13 21 4 0 0 0
 0 0 0 9 16 17 160 0 146 160 160 0 162 74 0 0 -15 161 35 0 29 16 0 17 29 0 161 6
0 30 38 23 10 0 53 -17 60 0 161 36 29 32 53 61 0 57 -17 30 0 161 29 36 11 31 24
 0 35 -17 36 0 161 30 60 25 37 100 0 95 -17 35 0 33 31 69 11 27 68 0 0 +15 33 29
 0 35 134 0 17 69 0 33 35 34 43 71 73 0 65 +17 34 0 33 69 31 45 95 92 0 78 -17 7
1 0 70 76 65 45 69 73 0 0 -17 95 0 135 37 78 25 34 92 0 0 +17 78 0 135 95 49 45
 76 79 0 71 +15 135 26 0 95 128 0 17 49 0 135 78 37 42 57 63 0 76 -17 37 0 135 4
9 95 32 36 100 0 60 +17 57 0 51 53 52 32 49 63 0 0 +17 162 0 117 162 162 0 160 7
4 0 0 +16 74 76 163 ?162 66 164 86 0 0 1 81 1 163 120 82 74 0 0 72 165 166 16 16
4 77 165 ?167 74 0 168 0 0 1 31 255 86 93 0 74 168 75 0 +0 0 .05 0 0 1 1 0 0 .01
 31 168 95 0 164 0 86 0 +0 0 0 0 0 1 1 0 0 .01 81 1 165 121 82 164 0 0 163 0 169
 17 167 0 129 167 167 0 170 164 0 0 +15 129 66 0 167 77 70 17 170 0 171 170 170
 0 167 164 0 0 -15 171 87 0 170 113 0 83 3 169 1 0 .61 81 1 72 119 82 66 0 0 88
 163 172 83 3 166 1 0 .61 81 1 88 118 82 73 0 0 83 72 173 83 3 172 1 0 .61 81 1
 83 117 82 79 0 0 80 88 174 83 3 173 1 0 .61 83 3 174 1 0 .61 15 117 86 0 162 11
3 171 50 18 49 0 67 140 6 0 +0 -.05 0 0 -1 0 0 0 -1 50 140 48 0 134 136 18 0 +-.
05 0 0 -1 0 0 0 0 1 50 136 47 0 128 123 140 0 +0 .05 0 0 1 0 0 0 1 50 123 46 0 5
6 130 136 0 +.05 0 0 1 0 0 0 0 -1 50 130 37 0 77 118 123 0 +0 0 0 0 0 -1 -1 0 0
 51 255 118 90 0 113 0 130 0 +0 0 0 0 0 1 .01 1 0 0 79 15 104 SDL/TYSA_COLOUR83
 3 84 1 0 .61 19 17 5 0 1 0 9 5 S74 4 CI16 index_map_offset0 0 1 dCCZ20 15 5 0 0
 147 149 13 2 165 0 0 0 0 0 0 0 0 0 0 0 0 0 0 0 80 1 12 157 175 9000 0 0 0 0 3 5
 0 0 0 FFTFFFFFFFFFFF3 84 5 14 CSG_979 15 175 AdamsObjectName1 0 
